<svg xmlns="http://www.w3.org/2000/svg" width="2000" height="2000" baseProfile="tiny-ps" viewBox="0 0 2000 2000"><path fill="#fefefe" d="M0 0h2000v2000H0z"/><path fill="#fefefe" d="M41 473c445.978-.04 445.978-.04 617.104-.048h10.857l137.792-.007q94.051-.004 188.102-.014h2.015l66.305-.007q92.812-.01 185.623-.015h3.872l118.15-.004h3.75q59.37-.002 118.738-.011a642002 642002 0 0 1 136.782-.007h3.316q25.541 0 51.082-.007 25.382-.006 50.763-.002 14.537.004 29.073-.004c64.898-.039 129.776.603 194.676 1.126v1040H41z"/><path fill="#0f3777" d="M41 473c445.978-.04 445.978-.04 617.104-.048h10.857l137.792-.007q94.051-.004 188.102-.014h2.015l66.305-.007q92.812-.01 185.623-.015h3.872l118.15-.004h3.75q59.37-.002 118.738-.011a642002 642002 0 0 1 136.782-.007h3.316q25.541 0 51.082-.007 25.382-.006 50.763-.002 14.537.004 29.073-.004c64.898-.039 129.776.603 194.676 1.126v1040H41zm47 48-1 55-1 12a199 199 0 0 0-.105 6.955l.007 3.782.022 4.044q.007 2.197.012 4.396.018 6.012.047 12.024.027 6.54.045 13.077.037 11.421.082 22.842.07 18.471.126 36.941l.04 12.866.01 3.262.111 33.645q.24 71.67.415 143.338l.01 3.567c.17 69.989.196 139.976-.01 209.964l-.008 2.966c-.12 40.722-.277 81.444-.452 122.165a88933 88933 0 0 0-.126 30.216q-.056 13.918-.128 27.837-.047 9.409-.086 18.817a5206 5206 0 0 1-.04 7.61q-.03 5.139-.048 10.278l-.022 3.01-.007 2.759-.012 2.367c.129 2.502.595 4.825 1.117 7.272.232 3.979.237 7.84-.562 11.75-.594 2.273-.594 2.273.062 4.625.523 2.744.173 4.788-.251 7.516-.485 4.106-.392 8.23-.374 12.359l-.012 2.719.004 2.61.004 2.356c.053 2.264.053 2.264 1.129 5.065.115 2.656.175 5.287.19 7.944l.025 2.45q.025 2.632.045 5.264.032 4.16.077 8.319c.07 6.884.13 13.769.19 20.654q.075 8.73.165 17.46.038 4.11.068 8.218l.05 5.006.013 2.327c-.27 3.47-.27 3.47 1.177 6.358 1.638.098 3.28.125 4.92.125l3.26.007 3.633-.008 3.84.004c3.556.004 7.111 0 10.667-.003q5.802-.003 11.604.002 10.227.003 20.455-.002 15.31-.006 30.62-.003 26.088.005 52.176-.003 26.454-.006 52.908-.006h20.378q61.628.003 123.257-.007 61.052-.01 122.105-.011h3.827l120.635-.004h3.958l124.908-.009h2.047l129.944-.013h2.074a3742691 3742691 0 0 1 279.117-.018h8.155l171.041-.009q175.071-.01 350.141-.026h3.313l51.205-.005L1912 1467c0-315.334-.563-630.667-1-946z"/><path fill="#4a6fae" d="M898.65 586.877q3.42-.004 6.84-.01c4.117-.007 8.234-.004 12.35 0l3.506-.006 3.193.01 2.712.002c3.268.15 6.51.664 9.749 1.127v71h-70c-.729 5.102-1.143 9.78-1.127 14.88l-.005 2.313c-.004 2.542 0 5.083.003 7.625l-.006 5.486q-.004 7.435 0 14.87c.003 5.194 0 10.388 0 15.583q-.004 13.086.005 26.172.006 15.111-.002 30.222-.007 12.989-.003 25.978.003 7.75-.001 15.502-.004 7.29.005 14.582 0 2.67-.002 5.34-.002 3.656.006 7.313l-.007 2.11c.02 5.135.558 9.843 1.134 15.024h335l-1-32c-.075-6.446-.13-12.885-.114-19.33v-5.068q.001-6.69.013-13.376c.006-4.708.006-9.415.008-14.122q.005-13.284.021-26.569.015-15.16.022-30.32.016-31.108.05-62.215l-2.65.007q-12.34.03-24.679.045-6.345.007-12.688.023-6.118.016-12.235.02-2.34.003-4.679.01-3.264.01-6.53.009l-3.761.006C1131 659 1131 659 1130 658c-.162-2.448-.26-4.87-.316-7.32l-.064-2.3q-.098-3.753-.182-7.505l-.065-2.567c-.41-16.438-.49-32.866-.373-49.308 3.877-2.591 7.95-2.276 12.433-2.247l2.603-.008c2.883-.005 5.765.003 8.648.012q3.098-.002 6.194-.006c5.611-.005 11.223.003 16.834.013 5.865.01 11.731.007 17.597.007q14.775.002 29.55.023 17.097.023 34.194.02 16.43 0 32.86.013 7 .006 14 .006 8.24.002 16.477.017 3.029.004 6.057.004 4.124 0 8.247.012l2.441-.004c3.22.014 5.789.113 8.865 1.138q.034 13.665.052 27.329.007 6.345.023 12.688.016 6.118.02 12.235.003 2.34.01 4.679.01 3.264.009 6.53l.006 3.761C1346 658 1346 658 1345 659c-1.824.089-3.652.107-5.479.098l-3.551-.01-3.876-.025-6.002-.018c-4.24-.013-8.479-.035-12.719-.055q-5.207-.027-10.414-.041-3.91-.012-7.817-.037l-3.628-.01-3.16-.016c-4.133.14-8.245.657-12.354 1.114v482l69 1c5.66 22.639 1 46.664 1 70h-216c-1-57-1-57 0-70 24.003-1.854 47.963-.694 72 0l-1-45V935H866l-.062 101.813-.028 32.19-.005 18.985q-.002 6.36-.01 12.72-.01 8.1-.008 16.202 0 2.98-.006 5.96-.006 4.012-.001 8.025l-.01 2.378c.01 3.179.117 5.688 1.13 8.727l70 1v70H722c-1.524-60.959-1.524-60.959-1-70l1-1h69V660l-69-1c-.552-18.774-1.101-37.53-1.125-56.312l-.008-2.103q-.006-2.91 0-5.823l.004-3.314C721 589 721 589 722 588a76 76 0 0 1 4.71-.158l3.096-.03 3.434-.017 3.605-.03q4.942-.04 9.884-.068 5.246-.035 10.493-.077 10.115-.074 20.23-.138 8.119-.051 16.238-.108c34.986-.24 69.973-.472 104.96-.497"/><path fill="#4b6fae" d="m1443.645 586.873 5.092-.005q6.915-.005 13.828.001c4.991.003 9.983-.001 14.975-.004q14.63-.005 29.26 0 11.889.003 23.778.001h3.426l6.892-.001q32.245-.004 64.491.006 27.665.005 55.33-.001a163746 163746 0 0 1 71.177-.004h3.407q11.882.002 23.764-.002 14.468-.005 28.935.003 7.38.005 14.761 0 6.754-.004 13.51.004 2.443.001 4.888-.002 3.321-.004 6.642.005h3.728C1835 587 1835 587 1842 588v138h-70c-9.843-19.686-1.656-43.993-2-66h-237l-1 202h275l1 72c-11.25 1.125-11.25 1.125-15.37 1.123l-2.857.006-3.036-.009-3.305.003q-5.447 0-10.893-.01l-7.837.001q-8.418 0-16.836-.008-12.171-.011-24.342-.012a71365 71365 0 0 1-39.499-.019q-19.177-.014-38.354-.02h-2.415l-18.7-.007c-30.519-.01-61.037-.03-91.556-.048l-1 208 54-.5c11.297-.098 22.594-.195 33.89-.277l2.132-.016c35.242-.258 70.485-.291 105.728-.27l2.158.002c18.03.01 36.061.034 54.092.061v-67c27.583-1.15 27.583-1.15 36.406-.879l2.991.072c3.035.074 6.069.159 9.103.244l6.32.159q7.59.19 15.18.404c4.165 45.811.362 92.001 0 138h-446v-70l50-1-.092-24.204a474769 474769 0 0 1-.426-117.198c-.315-88.866-.584-177.731-.545-266.598l.002-3.005q.015-35.997.061-71.995h-48c-.643-5.144-1.124-9.604-1.114-14.691v-3.82l.016-4.052.005-4.203q.006-5.493.024-10.988.014-5.621.02-11.242.016-11.003.049-22.004a539 539 0 0 1 35.645-1.127"/><path fill="#4a6fae" d="m174.266 586.874 3.408-.008 3.778.007 3.993-.005q5.514-.005 11.027.001c3.967.003 7.934-.001 11.9-.004q11.726-.005 23.453 0 9.651.003 19.304.001h2.792l5.624-.001q26.517-.004 53.033.006 22.245.005 44.49-.001c137.57-.042 137.57-.042 202.235.361l2.42.015c32.426.203 64.851.488 97.277.754v138h-69c-3.159-22.111-1-44.664-1-67l-138 1v483h64c7.38 22.138 1 46.664 1 70H301c-.742-4.45-1.126-8.103-1.13-12.54l-.009-3.872.006-4.139-.003-4.272q-.002-4.459.006-8.918.006-5.727-.004-11.454-.005-4.403 0-8.804 0-2.113-.002-4.226c-.003-1.96.002-3.921.007-5.882l.002-3.383C300 1143 300 1143 301 1142h75V660l-139-1v67c-16.93.04-16.93.04-24.123.049q-7.374.008-14.749.026-5.942.016-11.885.02-2.272.003-4.544.01-3.172.01-6.343.009l-3.654.006C169 726 169 726 168 725a62 62 0 0 1-.313-4.173l-.126-2.708-.117-2.983-.128-3.116c-.464-12.4-.441-24.797-.414-37.204l.005-7.569q.006-9.836.024-19.672c.011-6.725.015-13.45.02-20.175q.016-19.7.049-39.4c2.57-1.285 4.388-1.125 7.266-1.126"/><path fill="#5274af" d="m179.114 1264.839 2.654-.03 2.9-.012 2.99-.017q3.15-.015 6.302-.02c3.169-.01 6.338-.04 9.507-.073 20.329-.106 37.835 2.34 53.533 16.313v2h2c13.205 13.9 17.631 30.664 17.473 49.236-.23 7.913-1.235 14.474-4.473 21.764l-1.18 2.984c-6.272 14.327-18.012 25.018-32.382 30.766-9.384 3.514-18.046 4.73-28 5.375l-3.775.255c-11.035.71-21.68 1.189-32.663-.38v-15h8c.112-19.024-.204-38.046-.464-57.068l-.18-13.537q-.177-13.198-.356-26.395l-7-2q-.04-3.219-.062-6.438l-.036-3.62c.148-4.439 1.181-4.068 5.212-4.103"/><path fill="#4f72af" d="m975.297 1264.832 2.502-.01q2.633-.007 5.266-.007c2.633-.002 5.266-.02 7.9-.04 21.22-.071 41.509 2.108 57.785 17.35 14.401 15.367 18.866 32.402 18.594 52.75-.431 11.714-4.74 21.498-11.344 31.125l-1.422 2.164c-1.124 1.66-2.342 3.257-3.578 4.836h-2v2h-2l-1 3c-10.207 7.781-21.954 12.667-34.7 14.125l-2.202.254c-9.042.947-18.081.838-27.16.746q-2.63-.016-5.26-.027-6.339-.034-12.678-.098a499 499 0 0 1-.625-5.875l-.352-3.305L963 1381c2.686-2.686 5.376-3.06 9-4 1.025-5.065 1.136-9.894 1.114-15.035v-2.692c0-2.922-.008-5.843-.016-8.765l-.005-6.095q-.006-8.005-.024-16.01-.014-8.174-.02-16.348-.016-16.027-.049-32.055l-9-1c-.838-4.655-1.016-8.37 0-13 3.789-1.263 7.349-1.162 11.297-1.168M502.75 1264.625l3.297-.148c2.953.523 2.953.523 4.976 2.566L513 1270a379 379 0 0 0 2.742 3.574l3.133 4.113q7.014 9.194 14.125 18.313a2668 2668 0 0 1 21.325 27.743c4.588 6.045 9.026 12.13 13.167 18.491L569 1344h3c2.005-2.206 2.005-2.206 4-5.125q1.203-1.664 2.41-3.324l1.278-1.767c2.18-2.963 4.465-5.84 6.75-8.722 8.837-11.197 17.458-22.55 25.999-33.974q2.405-3.211 4.817-6.416l1.616-2.15q1.516-2.016 3.034-4.031l1.405-1.87 1.37-1.805a68 68 0 0 0 2.568-3.8c1.932-3.024 3.118-4.8 6.577-5.977 3.69-.045 7.308.069 10.989.336l2.06.133c4.993.358 4.993.358 6.127 1.492.099 1.623.13 3.25.125 4.875l.008 2.68C653 1277 653 1277 652 1280q-2.657-.213-5.312-.437l-2.989-.247C641 1279 641 1279 638 1278q-.036 13.578-.052 27.155-.007 6.31-.023 12.62c-.054 20.102.101 40.14 1.075 60.225l2.809-.035c1.197-.01 2.395-.018 3.629-.027l3.62-.036C652 1378 652 1378 653 1379c.073 2.353.084 4.708.063 7.063l-.028 3.91L653 1393c-30.127 1.4-30.127 1.4-44 0-1.652-4.956-.5-9.84 0-15h13l-1-74c-2.778 2.778-4.633 4.711-6.664 7.871l-1.445 2.219-1.516 2.348c-4.322 6.586-8.806 12.89-13.676 19.085-3.35 4.276-6.549 8.66-9.761 13.04A2046 2046 0 0 1 572 1370c-4.14-1.529-6.223-4.503-8.75-7.937l-1.33-1.768c-2.66-3.548-5.263-7.137-7.857-10.733-4.321-5.984-8.894-11.755-13.471-17.543a2573 2573 0 0 1-8.967-11.457l-1.766-2.258A339 339 0 0 1 520 1305c-1.133 3.622-1.12 7.008-1.114 10.788v2.041c0 2.219.008 4.437.016 6.655l.005 4.624q.006 6.077.024 12.152.014 6.204.02 12.408.016 12.165.049 24.332l12-1c.705 3.523 1.137 6.144 1.125 9.625l.008 2.29C532 1391 532 1391 531 1394q-7.98.037-15.96.055-2.715.008-5.427.02-3.906.017-7.812.023l-2.44.015h-2.305l-2.012.007C493 1394 493 1394 488 1393l-1-15 14-1c.913-5.384 1.11-10.511 1.022-15.965l-.03-2.633c-.032-2.852-.073-5.703-.113-8.554l-.072-5.957q-.094-7.814-.202-15.629-.104-7.983-.2-15.967-.195-15.648-.405-31.295h-13q-.29-3.468-.562-6.937l-.317-3.903L487 1267c3.007-3.007 11.746-2.217 15.75-2.375M1401 1265c3.592 2.337 4.994 5.29 7 9a183 183 0 0 0 4.375 5.313c3.832 4.662 7.469 9.44 11.066 14.285 3 4.015 6.096 7.954 9.184 11.902 5.82 7.445 11.506 14.982 17.157 22.556 4.294 5.743 8.658 11.408 13.218 16.944l1.035-1.354q5.98-7.825 11.965-15.646c.485-.634.97-1.267 1.468-1.92 4.022-5.257 8.048-10.504 12.22-15.642 9.32-11.585 18.073-23.654 26.811-35.68A764 764 0 0 1 1520 1270l1.66-2.89c3.756-3.387 7.731-2.644 12.59-2.422l2.836.068c2.305.059 4.61.148 6.914.244l1 15-15 1 1 96 13 1v15c-3.49.698-6.048 1.128-9.484 1.133l-2.562.006-2.704-.014-2.788-.006c-8.518-.053-16.965-.528-25.462-1.119v-15c5-1 5-1 13-1l-1-72c-3.63 3.63-5.675 5.774-8.125 9.938-4.038 6.53-8.765 12.396-13.548 18.385-3.058 3.865-5.977 7.837-8.92 11.79q-2.609 3.494-5.231 6.977l-2.052 2.73-4.072 5.415-1.892 2.519-1.699 2.26A131 131 0 0 0 1464 1370c-3.832-1.277-5.248-3.565-7.562-6.687l-1.331-1.76c-3.503-4.663-6.864-9.423-10.223-14.19-3.52-4.951-7.292-9.668-11.122-14.381-6.037-7.478-11.674-15.252-17.327-23.022A557 557 0 0 0 1412 1304c-1.25 7.72-1.127 15.423-1.098 23.219l.005 4.405q.006 5.76.024 11.52.014 5.893.02 11.786.016 11.535.049 23.07l2.59-.254 3.348-.309 3.34-.316L1423 1377c1 1 1 1 1.098 4.379q-.01 2.091-.035 4.184l-.014 2.154q-.02 2.64-.049 5.283-5.968.254-11.937.5l-3.385.145c-16.71.686-16.71.686-24.178-.082l-2.531-.247C1380 1393 1380 1393 1379 1392c-.144-4.668-.042-9.329 0-14l16-2q.035-13.237.052-26.476.007-6.152.023-12.304c.053-19.1-.06-38.139-1.075-57.22l-6.375.563c-6.375.562-6.375.562-8.625-.563v-14c6.734-2.245 15.043-2.3 22-1"/><path fill="#5576b0" d="m819.188 1264.438 2.212-.15c4.604-.087 7.157.737 10.678 3.751A157 157 0 0 1 836 1272l1.92 1.947a330 330 0 0 1 5.643 5.99c.62.665 1.24 1.33 1.88 2.014 3.07 3.3 6.086 6.638 9.041 10.041 3.627 4.17 7.4 8.187 11.203 12.196q2.115 2.236 4.227 4.476l2.09 2.216c6.546 6.955 13.052 13.947 19.297 21.175 1.993 2.282 4.034 4.517 6.074 6.757 3.959 4.37 7.659 8.902 11.29 13.547 1.92 2.17 3.78 3.946 5.981 5.806l1.905 1.615L918 1361q.034-15.62.052-31.24.007-7.253.023-14.505.016-6.993.02-13.986.003-2.673.01-5.348.01-3.732.009-7.464l.01-2.256c.296-3.387.296-3.387-1.124-6.201-3.67-.143-7.327-.042-11 0v-14c3.4-.68 5.822-1.124 9.148-1.114h2.365l2.507.016 2.601.005c2.73.005 5.461.018 8.192.03q2.784.008 5.568.014 6.81.017 13.619.049c2.728 5.041 2.136 9.306 2 15l-17 1v116c-3.345-1.672-4.915-2.666-7.426-5.195l-1.903-1.907-1.984-2.023-2.054-2.078c-4.386-4.461-8.61-9.006-12.633-13.797-9.29-10.936-9.29-10.936-19.25-21.254-1.807-1.803-3.466-3.682-5.125-5.621-3.526-4.106-7.35-7.866-11.2-11.668-2.718-2.754-5.262-5.614-7.757-8.57-2.124-2.403-4.387-4.632-6.668-6.887l-3.594-3.594-1.933-1.933L839 1298v80c8.104.474 8.104.474 12-1 1.756 1.756 1.132 4.036 1.137 6.371l-.012 2.129.012 2.129c-.01 5.244-.01 5.244-1.137 6.371-1.981.1-3.966.13-5.95.133l-3.763.004-3.975-.012-3.822.012c-8.557-.009-16.962-.442-25.49-1.137v-15c3.473-.695 5.913-1.12 9.313-1.062L821 1377c1.31-10.345 1.127-20.7 1.098-31.105l-.005-5.805q-.006-7.588-.024-15.175-.014-7.764-.02-15.526-.016-15.195-.049-30.389c-6.533.795-6.533.795-13 2-.889-3.082-1.193-5.92-1.25-9.125l-.078-2.633L808 1267c3.75-2.5 6.833-2.476 11.188-2.562"/><path fill="#5476b0" d="M411 1260h2a8815 8815 0 0 1 16.339 38.747 8042 8042 0 0 0 16.536 39.19l1.075 2.533c3.61 8.506 7.237 17.003 10.933 25.471l.866 1.99c1.342 3.063 2.715 6.096 4.251 9.069l2.3-.035c.995-.01 1.989-.018 3.012-.027l2.989-.036C474 1377 474 1377 477 1378q.29 3.718.563 7.438l.17 2.142c.129 1.804.202 3.612.267 5.42-1.774 1.774-4.137 1.128-6.5 1.139l-2.332-.006-2.388.003q-2.509 0-5.017-.006c-2.554-.005-5.109 0-7.663.007q-2.434 0-4.87-.004l-2.314.006c-3.546-.016-6.448-.272-9.916-1.139l-1-13 8-3c-2.065-8.328-4.71-16.344-7.875-24.312l-.955-2.553-.975-2.373-.843-2.127c-1.306-1.9-1.306-1.9-4.035-2.362-3.542-.292-7.025-.403-10.579-.406l-2.038-.003q-2.115 0-4.232.006c-2.16.005-4.319 0-6.478-.007q-2.063 0-4.127.004l-3.772.004c-3.128-.012-3.128-.012-6.091 1.129-1.533 2.695-1.533 2.695-2.883 6.047l-.787 1.843a536 536 0 0 0-1.628 3.874 648 648 0 0 1-2.495 5.892c-3.234 7.472-3.234 7.472-5.207 15.344l8 3v14q-5.865.036-11.731.055-2.953.012-5.906.033c-7.844.02-15.56-.279-23.363-1.088-.166-5.745-.278-10.59 2-16h12c7.217-13.67 13.204-27.853 19.196-42.091q1.2-2.847 2.404-5.692c5.055-11.949 10.078-23.909 14.935-35.94l.884-2.186q2.1-5.201 4.18-10.41c2.832-7.062 5.845-13.95 9.401-20.681"/><path fill="#5475b0" d="M1300 1260h2c2.663 5.197 5.067 10.393 7.215 15.82l1.809 4.513.944 2.366c5.509 13.787 11.204 27.471 17.164 41.07 4.93 11.283 9.625 22.658 14.288 34.054l.86 2.103q1.152 2.816 2.3 5.634l1.42 3.44.733 1.962c.666 1.717 1.459 3.383 2.267 5.038 3.748 1.081 6.984 1 10.875 1H1365c1.786 1.786 1.462 4.39 1.688 6.813l.324 3.207c-.012 3.085-.561 4.346-2.012 6.98q-7.608.037-15.216.055-2.589.008-5.177.02-3.72.017-7.439.023l-2.34.015c-3.211 0-5.758-.09-8.828-1.113v-13l7-3c-.377-7.6-3.203-13.56-6.437-20.375l-1.526-3.309c-2.418-5.562-2.418-5.562-6.037-10.316a96 96 0 0 0-7.93-.406l-2.384-.035a744 744 0 0 0-4.998-.04c-2.547-.019-5.09-.08-7.637-.144q-2.428-.02-4.856-.031l-2.304-.075c-2.442-.044-2.442-.044-5.891.731-4.479 5.124-6.709 11.832-9.312 18.063l-1.417 3.26-1.322 3.15-1.208 2.851c-.826 2.984-.59 4.732.259 7.676l6 2v13c-3.59.718-6.256 1.128-9.809 1.133l-2.745.006-2.883-.014-2.954-.006c-7.573-.045-15.067-.398-22.609-1.119q-.079-2.625-.125-5.25l-.07-2.953c.2-2.882.491-4.472 2.195-6.797 1.875-.68 1.875-.68 4-.875l2.125-.242C1245 1377 1245 1377 1247 1379c6.975-6.317 9.979-17.409 13.563-25.875l1.578-3.709q1.223-2.87 2.444-5.742a2622 2622 0 0 1 5.337-12.463 3803 3803 0 0 0 17.015-40.149l.962-2.298c3.523-8.427 6.962-16.865 10.158-25.422C1299 1261 1299 1261 1300 1260"/><path fill="#4d71ae" d="M770.98 1277.242c2.467 2.157 4.759 4.388 7.02 6.758l1.879 1.855c10.178 10.68 16.257 24.48 17.121 39.145l.16 2c.753 17.284-5.778 33.184-17.16 46-2.437 2.625-2.437 2.625-5 5l-1.664 1.645c-13.208 12.474-29.647 15.189-47.172 14.699-16.693-.858-31.78-8.14-43.164-20.344-5.678-6.738-9.866-13.773-13-22l-.969-2.363c-5.194-15.078-3.072-33.238 3.254-47.543 8.537-16.932 21.989-28.632 39.59-35.16 20.346-6.42 42.113-2.475 59.105 10.308M701 1288l-2.281 1.563L697 1291v2h-2c-9.257 10.197-14 22.291-14 36v2.96c.614 14.615 7.359 26.856 17.75 36.852 9.727 8.331 22.395 12.707 35.188 12.126 15.093-1.611 26.451-7.054 36.437-18.688 9.229-12.497 13.245-27.12 11.223-42.602-3.207-14.209-12.708-26.342-24.637-34.52-17.459-10.05-39.633-8.487-55.961 2.872"/><path fill="#fdfdfe" d="M996.5 1279.75c16.694.01 29.806 3.246 42.207 14.86 7.411 7.726 12.848 17.565 13.293 28.39l.156 2.969c.41 14.37-3.546 27.63-13.39 38.406-7.488 6.891-15.63 11.807-25.829 12.813l-2.24.239c-6.506.647-13.181 1.282-19.697.573-2.42-2.42-2.263-3.037-2.319-6.353l-.06-2.755-.035-3.013-.059-3.138c-.06-3.392-.107-6.785-.152-10.178l-.113-6.979a3026 3026 0 0 1-.387-40.709l-.008-2.147c-.021-7.312.028-14.49 1.133-21.728 1.885-1.885 4.985-1.218 7.5-1.25"/><path fill="#fbfcfd" d="M203.605 1279.918q2.293.113 4.583.27l2.441.161c15.763 1.182 27.433 4.238 38.746 15.901 9.164 10.676 12.274 23.21 11.867 37.164-1.178 12.585-5.74 24.338-15.246 32.996-14.869 11.843-28.703 12.066-46.996 11.59-1.677-3.353-1.147-7.136-1.145-10.824l-.01-2.77q-.013-4.546-.013-9.093l-.01-6.3q-.009-6.608-.007-13.215c0-5.657-.014-11.313-.031-16.97q-.015-6.505-.013-13.011 0-3.129-.013-6.258c-.01-2.912-.007-5.823 0-8.735-.01-1.303-.01-1.303-.018-2.632.043-8.142.043-8.142 5.865-8.274"/><path fill="#5173af" d="m1728.488 1264.832 2.59-.01q2.72-.007 5.44-.007c2.772-.002 5.544-.02 8.316-.04q2.64-.005 5.28-.005l2.512-.022c7.114.028 7.114.028 10.374 2.252q.079 2.187.125 4.375l.07 2.46C1763 1276 1763 1276 1761 1278h-3c.532 4.38 1.549 7.459 3.809 11.238l1.75 2.963 1.879 3.111 1.905 3.206q1.912 3.217 3.834 6.427c1.653 2.77 3.285 5.55 4.905 8.34l1.38 2.372q1.26 2.17 2.516 4.34c1.519 2.595 2.887 4.868 5.022 7.003l.927-1.734c5.871-10.95 11.794-21.814 18.506-32.277 2.858-4.528 4.836-8.916 6.567-13.989l-2.937-.937C1805 1277 1805 1277 1804 1276a92 92 0 0 1-.062-5.062l.027-2.786.035-2.152a114 114 0 0 1 16.586-1.133l2.373-.003q2.457 0 4.916.006c2.514.005 5.028 0 7.543-.007q2.397 0 4.793.004l2.279-.006c5.28.024 5.28.024 7.51 1.139.45 2.652.45 2.652.688 5.938l.261 3.277C1851 1278 1851 1278 1850 1280l-20 1-2 5a226 226 0 0 1-3.625 6.063c-6.43 10.549-12.525 21.293-18.604 32.047q-2.746 4.854-5.544 9.68-1.085 1.916-2.165 3.835l-1.777 3.102c-3.234 8.236-2.306 17.221-1.848 25.898l.159 3.332q.194 4.022.404 8.043l12-1v17q-8.676.037-17.352.055-2.952.008-5.905.02-4.24.017-8.481.023l-2.671.015h-2.487l-2.187.007C1766 1394 1766 1394 1763 1393v-15c7.625-1 7.625-1 11-1 .062-3.279.059-6.554.021-9.833a516 516 0 0 1-.022-4.701c-.045-11.844-.252-21.351-6.999-31.466a957 957 0 0 1-2.504-3.957 793 793 0 0 0-4.39-6.897 331 331 0 0 1-9.301-15.455l-1.082-1.908q-2.662-4.71-5.29-9.44l-1.964-3.495-1.737-3.125c-1.69-2.658-3.358-4.661-5.732-6.723-3.39-.697-6.87-.565-10 1-2 .04-4 .043-6 0q-.04-3.72-.062-7.437l-.026-2.143c-.009-1.807.036-3.614.088-5.42 2.086-2.086 6.61-1.164 9.488-1.168"/><path fill="#5375af" d="m1140.709 1264.876 2.483.01h2.601c2.852 0 5.703.009 8.555.016l5.914.005q7.8.006 15.6.024 7.953.014 15.906.02 15.615.016 31.232.049.258 2.586.508 5.173c.14 1.44.14 1.44.285 2.91.312 4.398.072 8.713-.23 13.105l-.159 2.595A1059 1059 0 0 1 1223 1295h-15l-.684-9.18c-.146-2.767-.146-2.767-1.316-4.82q-9.585-.037-19.171-.055-3.264-.008-6.527-.02-4.68-.018-9.36-.023l-2.968-.015h-2.73l-2.415-.007c-1.848-.08-1.848-.08-2.829 1.12a234 234 0 0 0-.098 8.629l.005 2.619c.005 2.771.018 5.543.03 8.315q.009 2.81.014 5.623.017 6.907.049 13.814l2.896-.016c32.026-.16 32.026-.16 44.229.454l2.45.118c5.29.309 5.29.309 6.425 1.444.073 2.186.084 4.375.063 6.563l-.028 3.628L1216 1336l-1.858-.007q-9.587-.032-19.175-.048-3.576-.008-7.152-.02-5.145-.018-10.292-.023l-3.22-.015c-4.881 0-9.506.074-14.303 1.113q-.037 8.304-.055 16.608-.008 2.827-.02 5.654-.017 4.054-.023 8.11l-.015 2.569c0 2.02.05 4.04.113 6.059 2.06 2.06 6.217 1.414 9.063 1.563l2.298.13q2.82.159 5.639.307c.664 3.64 1.138 7.111 1.125 10.813l.008 2.332C1178 1393 1178 1393 1177 1394c-2.584.101-5.142.14-7.727.133l-2.366.003q-2.49 0-4.979-.006c-2.521-.005-5.043 0-7.565.007q-2.42 0-4.84-.004l-2.267.006c-4.517-.02-8.798-.4-13.256-1.139q-.118-3.187-.187-6.375l-.106-3.586.293-3.039c3-2 3-2 8-3l1-97h-7l-2-1q-.04-3.22-.062-6.437l-.036-3.622c.17-5.1 2.25-4.057 6.807-4.065"/><path fill="#5f7cb2" d="M1615 1265q8.09-.037 16.18-.055 2.755-.008 5.51-.02 3.95-.017 7.9-.023l2.503-.015c1.97 0 3.939.051 5.907.113 1 1 1 1 1.098 4.16l-.035 3.902-.028 3.91L1654 1280l-13 1c-1.183 10.233-1.128 20.384-1.098 30.668l.005 5.67q.006 7.41.024 14.82.016 8.918.023 17.837c.01 9.002.029 18.003.046 27.005h49l2-12c4.377-.7 8.564-1.211 13-1 1 1 1 1 1.114 3.776l-.016 3.665-.01 3.955-.025 4.167-.014 4.177q-.018 5.13-.049 10.26-16.247.035-32.494.052-7.545.007-15.09.023-7.284.016-14.569.02-2.775.003-5.55.01-3.895.01-7.791.009l-2.304.01c-4.502-.008-8.76-.386-13.202-1.124l-1-14 9-2v-97l-8-1c-1.84-1.84-1.18-4.351-1.23-6.797.277-2.652 1.207-4.752 2.23-7.203"/><path fill="#5677b0" d="m299.129 1264.867 2.742-.003q2.871 0 5.742.006c2.94.005 5.882 0 8.823-.007q2.784 0 5.568.004l2.683-.006c6.198.024 6.198.024 7.313 1.139.073 2.353.084 4.708.063 7.063l-.028 3.91L332 1280l-12 1v96l12 1v15c-3.2.8-5.364 1.128-8.57 1.133l-2.693.006-2.862-.014-2.936-.006c-9.002-.053-17.96-.498-26.939-1.119v-15c4.626-.66 8.436-1.111 13-1 1.296-10.275 1.127-20.553 1.098-30.887l-.005-5.737q-.006-7.499-.024-14.998-.014-7.672-.02-15.345-.016-15.016-.049-30.033c-.843.095-1.686.19-2.555.29-1.095.11-2.191.22-3.32.335l-3.305.352-2.82.023c-2-2-2-2-2.195-5.04l.07-3.585.055-3.602.07-2.773c3.428-1.714 7.358-1.141 11.129-1.133"/><path fill="#5073af" d="m1560.045 1264.87 2.599-.009 2.825.006 2.88-.003q3.022 0 6.043.006 4.643.005 9.284-.007 2.928 0 5.855.004l2.825-.006 2.6.01 2.298.002C1599 1265 1599 1265 1600 1266c.073 2.186.084 4.375.062 6.562l-.027 3.63L1600 1279c-4.927 1.271-8.537 1-14 1v98h13c.66 3.96 1.121 6.997 1.062 10.875l-.027 2.367L1600 1393c-3.549.808-6.828 1.128-10.465 1.133l-3.156.006-3.317-.014-3.38-.006c-7.947-.041-15.766-.391-23.682-1.119l-1-15 15-1-1-96-14-1c-.098-10.84-.098-10.84 0-14 1.53-1.53 2.912-1.127 5.045-1.13"/><path fill="#5476b0" d="m1527 1290 3 1 1 86 13 1v15c-3.49.698-6.048 1.128-9.484 1.133l-2.562.006-2.704-.014-2.788-.006c-8.518-.053-16.965-.528-25.462-1.119v-15c3.473-.695 5.913-1.12 9.313-1.062l3.687.062q-.16-14.004-.34-28.007-.083-6.502-.157-13.005-.072-6.273-.156-12.546-.031-2.396-.056-4.79-.037-3.352-.086-6.702l-.047-3.856c-.022-3.13-.022-3.13-1.158-6.094l2-2 2 3 2-3 2 14h2v-3l-2-1c1-3 1-3 2.938-4.187C1525 1305 1525 1305 1527 1305z"/><path fill="#5174af" d="m1698.563 1363.875 3.003-.008C1704 1364 1704 1364 1705 1365c.088 2.146.107 4.294.098 6.441l-.01 3.955-.025 4.167-.014 4.177q-.018 5.13-.049 10.26-16.247.035-32.494.052-7.545.007-15.09.023-7.284.016-14.569.02-2.775.003-5.55.01-3.895.01-7.791.009l-2.304.01c-4.502-.008-8.76-.386-13.202-1.124l-1-14 3-1 3 2c2.102-.005 2.102-.005 4-1l1-2c1-2 1-2 3.063-2.812L1629 1374l1 1 3-1 3 2 2-3c.553 2.076 1 3.844 1 6h4l2 2 2-1v2c1.975-.348 1.975-.348 4-1l1-2h14v2h5l1-2c3.375.547 5.082 1.055 8 3l3-2h4c1.856-3.874 3.144-7.086 3.563-11.375L1691 1365c2.623-1.312 4.637-1.133 7.563-1.125"/><path fill="#5576b0" d="M1145 1278c5.191 7.787 5.191 7.787 4.625 11.375L1149 1292c.125 1.4.295 2.797.5 4.188.5 3.812.5 3.812-.5 5.812l1 3a169 169 0 0 1-2 6q.002 3.36.035 6.723.015 2.17.027 4.34l.026 2.22c.025 5.49.025 5.49-1.088 7.717q.36 2.691.738 5.379c.625 6.255.982 13.053-.265 19.234-1.069 5.396-.37 12.661 2.527 17.387 2.041.887 2.041.887 4 1l1-3h3l-.496-3.746c-.642-5.777-.614-11.511-.566-17.316l.013-3.202q.018-3.868.049-7.736h2l.076 3.289q.142 6.018.296 12.037.066 2.609.125 5.218.088 3.742.187 7.483l.05 2.37c-.228 3.602-.228 3.602 1.266 6.603a226 226 0 0 0 8.063.563l2.298.13q2.82.159 5.639.307c.664 3.64 1.138 7.111 1.125 10.813l.008 2.332C1178 1393 1178 1393 1177 1394c-2.584.101-5.142.14-7.727.133l-2.366.003q-2.49 0-4.979-.006c-2.521-.005-5.043 0-7.565.007q-2.42 0-4.84-.004l-2.267.006c-4.517-.02-8.798-.4-13.256-1.139q-.118-3.187-.187-6.375l-.106-3.586.293-3.039c2.918-1.945 4.625-2.453 8-3l.025-3.669q.116-17.085.263-34.17.076-8.783.134-17.567.056-8.471.136-16.943.029-3.237.045-6.476c.017-3.014.046-6.029.078-9.044l.007-2.726c.084-6.177.084-6.177 2.312-8.405m2 97-1 4 4-2-1-2z"/><path fill="#788db7" d="m908.753 1264.88 2.308.006h2.608l2.835.016 2.888.005c3.057.005 6.114.018 9.17.03q3.102.009 6.202.014 7.617.017 15.236.049c2.728 5.041 2.136 9.306 2 15l-17 1v116l-4-2 1-1.562c1.814-4.423 1.087-8.922.492-13.56-.56-4.93-.605-9.795-.555-14.753l.014-2.547q.014-2.317.033-4.636c.014-1.647.016-3.295.016-4.942l.035-5.254.027-6.308.026-3.233.01-3.084.016-2.83c.039-2.321.039-2.321-1.114-4.291.235-1.879.474-3.758.738-5.633.925-7.37.925-7.37-.738-14.367-.378-4.242-.417-8.493-.5-12.75l-.164-3.578c-.134-8.483-.134-8.483 2.117-11.838 3.383-3.076 4.838-3.834 9.547-3.834l2-2h3l2-5h-2l-2 2h-4l-2-3c-2.291-.4-2.291-.4-4.938-.258l-2.96.043-3.102.09q-3.03.065-6.063.117l-2.722.074C917 1268 917 1268 915 1267l-1 2v-2h-7l1 10 3.187-1.062c3.62-.89 5.374-1.215 8.813.062l2 3 2.062 1.813c3.25 3.67 2.938 7.446 2.938 12.187l.562 3.313c.455 3.833-.01 6.887-.562 10.687a449 449 0 0 0 1 6c-.397 2.848-1.09 5.268-2 8 .3 1.673.636 3.34 1 5v4l.07 2.727.055 2.898.07 2.914C927 1341 927 1341 925 1343q.459 3.007 1 6c-.438 2.375-.438 2.375-1 4l2 1h-2l.625 2.25c.42 3.073-.006 4.178-1.625 6.75l3 1-3 1-2 2c-2 0-2 0-4.188-2.125l-1.312-1.379c-2.172-2.166-4.556-4.053-6.95-5.969-1.724-1.698-2.587-3.32-3.55-5.527 3 0 3 0 4.754 1.715l1.808 2.223c2.35 2.988 2.35 2.988 5.438 5.062q.034-15.62.052-31.24.007-7.253.023-14.505.016-6.993.02-13.986.003-2.673.01-5.348.01-3.732.009-7.464l.01-2.256c.296-3.387.296-3.387-1.124-6.201a110 110 0 0 0-5.563-.062l-3.066.027L906 1280q-.039-3.468-.063-6.937l-.035-3.903c.127-4.093.127-4.093 2.85-4.28"/><path fill="#5878b1" d="M311 1326c2.569 2.154 3.869 3.579 4.875 6.813.147 3.756-.671 6.646-1.875 10.187l2 1v2h-2l1.063 2.25c1.048 3.077.734 3.74-.063 6.75q.438 3.509 1 7c0 3.796-.502 5.629-2 9l2 1-2 5-2-2 1 4 5-1 2 6 3.25-.562C327 1383 327 1383 331 1384v10c-14.385.105-28.644-.035-43-1v-15c4.626-.66 8.436-1.111 13-1 .845-6.64 1.067-13.196.992-19.879l-.024-2.377c-.036-3.272-.079-6.544-.14-9.817a819 819 0 0 1-.086-7.243l-.056-2.25c-.01-2.077-.01-2.077.314-5.434 3.376-2.25 5.067-2 9-2z"/><path fill="#5374af" d="M1135 1265h88c.67 7.366 1.063 13.924.563 21.188l-.159 2.595A1059 1059 0 0 1 1223 1295h-15l-.684-9.18c-.146-2.767-.146-2.767-1.316-4.82q-9.585-.037-19.171-.055-3.264-.008-6.527-.02-4.68-.017-9.36-.023l-2.968-.015h-2.73l-2.415-.007c-1.848-.08-1.848-.08-2.829 1.12a168 168 0 0 0-.562 6.563l-.254 3.628L1159 1295l-2-1c-.218-6.009-.337-11.39 2-17 2.453-1.799 5.043-2.366 8-3v-2c2.561-2.296 3.48-3 7-3v-2l-2.826.016q-5.23.025-10.461.039-2.257.008-4.513.02-3.258.017-6.516.023l-3.952.016c-3.684-.113-7.102-.52-10.732-1.114z"/><path fill="#758bb7" d="M500 1270c2 2 2 2 2 3h3c2.72 2.266 4.653 3.986 5.813 7.375.299 4.194.49 8.178-.375 12.313-.597 2.27-.597 2.27.062 4.312.651 2.605.028 4.36-.5 7-.19 3.86-.278 7.643.5 11.438.811 4.156.564 8.34.5 12.562 0 2.559.2 4.904.5 7.438.845 8.252.893 16.379-.5 24.562v3l-2 3c-2.625.188-2.625.188-5 0l2.313.25c3.21.896 3.98 1.966 5.687 4.75l-2 3h-4l1 2-2 2h-3v5l-1-3-2.375 1.063L496 1382l-2-1-.875 1.875C492 1385 492 1385 490 1387a90 90 0 0 0-1 6h-1l-1-15 14-1c.913-5.384 1.11-10.511 1.022-15.965l-.03-2.633c-.032-2.852-.073-5.703-.113-8.554l-.072-5.957q-.094-7.814-.202-15.629-.104-7.983-.2-15.967-.195-15.648-.405-31.295l-8-1v-1h5l-3-3 4-1-1-3z"/><path fill="#5576b0" d="M1615 1265q8.09-.037 16.18-.055 2.755-.008 5.51-.02 3.95-.017 7.9-.023l2.503-.015c1.97 0 3.939.051 5.907.113 1 1 1 1 1.098 3.723l-.035 3.34-.028 3.347-.035 2.59c-2.312.625-2.312.625-5 1l-3-2c-2.517-.148-2.517-.148-5 1-2.752 3.153-2.752 3.153-4 7l-.562 2.438c-.694 2.542-.694 2.542.562 4.562h-2l.5 2.563c.514 3.535.567 6.869.5 10.437v3l-6 2 2 1-3 4c-1.04-3.38-1.08-6.478-1-10h2l-.5-1.75c-.5-2.25-.5-2.25-.5-6.25a136 136 0 0 0-1-5.25l-.562-2.703L1627 1287h-1l-2-6-2.152-.402-2.785-.535-2.778-.528C1614 1279 1614 1279 1613 1278c-.256-5.124.017-8.247 2-13"/><path fill="#5b7ab1" d="m1527 1290 3 1 1 86 13 1v15h-1l-1-12c-5.653 1.042-5.653 1.042-11 3-2.206-3.357-3.375-6.04-4-10l-1-3 1-3-1-1c-.1-1.602-.13-3.208-.125-4.812l-.008-2.645c.122-2.33.478-4.312 1.133-6.543l-2-1c0-4 0-4 2-6 .277-1.937.277-1.937.195-4.133l-.02-2.441-.05-2.551-.027-2.574c-.024-2.1-.06-4.2-.098-6.301h-3l-1-1v5h-2l2 4h-5l.125-2.875c.225-3.227.225-3.227-2.125-5.125v44l6-2c-.55 3.848-2.32 5.32-5 8v3c-2 1.688-2 1.688-4 3l-3-3-2 1q-3.511-.421-7-1l1-4h12q-.16-14.004-.34-28.007-.083-6.502-.157-13.005-.072-6.273-.156-12.546-.031-2.396-.056-4.79-.037-3.352-.086-6.702l-.047-3.856c-.022-3.13-.022-3.13-1.158-6.094l2-2 2 3 2-3 2 14h2v-3l-2-1c1-3 1-3 2.938-4.187C1525 1305 1525 1305 1527 1305zm-9 87 3 3-3-1zm3 0 2 2h-2z"/><path fill="#758bb7" d="M183 1273h3c5.035 10.07 5.035 10.07 4 17q-.13 3.57-.133 7.14l-.004 3.993.007 2.048c.005 2.078 0 4.155-.007 6.233l.004 3.977.004 3.626c-.006 3.037-.006 3.037 1.129 5.983l-.5 2.125c-.599 3.443-.134 6.269.441 9.691.07 2.595-.627 3.98-1.941 6.184l-1-2c.844 2.91.844 2.91 2.188 4.938.812 2.062.812 2.062-.063 4.124L189 1350c-.257 2.936-.257 2.936 1.125 4.875.875 2.125.875 2.125 0 4.875L189 1362h-4l1 4h2c1.24 3.581 1.027 6.366 0 10-1.937 1.125-1.937 1.125-4 2-1.268 2.034-1.268 2.034-2 4l-2.437-.562L177 1381c-1.286 1.06-1.286 1.06-1.098 3.504l.036 3.059.027 3.066L176 1393h-2v-15h8c.112-19.024-.204-38.046-.464-57.068l-.18-13.537q-.177-13.198-.356-26.395l-6-1c2-3 2-3 4.625-3.687L182 1276z"/><path fill="#7c8fb8" d="m994 1275 1.563 1.063c3.4 1.307 5.873.541 9.437-.063 2.333-.039 4.667-.045 7 0h3c3 1 3 1 4.375 2.5 1.576 1.716 1.576 1.716 4.125 2 2.845.569 3.717 1.271 5.5 3.5l1 2c2.527.656 2.527.656 5 1v2l4 1-2 4-1.617-1.39c-13.526-11.14-28.507-11.955-45.383-11.61-.976 11.722-1.158 23.368-1.125 35.125l.003 2.79c.021 19.04.478 38.059 1.122 57.085 9.444 3.148 24.344 1.614 33.457-1.965 2.314-1.204 4.403-2.543 6.543-4.035l2.492-1.613c9.404-6.674 14.687-16.316 17.508-27.387h1c-.37 5.746-1.24 9.856-4 15l1 2h-3l1 3-2 2a220 220 0 0 0-2.375 3.5c-1.951 2.78-3.388 4.272-6.625 5.5l-2 2h-2l-2 5h-3c-3.1.322-3.1.322-6 1l-1 2-2.562-.125c-3.523-.022-3.523-.022-7.063 1.25-3.375.875-3.375.875-5.812 0L1002 1382l-1 3-3-2-2 2-2-2-2 1-1-1-2.017-1.717c-2.427-2.794-2.553-4.156-2.716-7.816l-.167-3.51-.1-3.957-.055-2.138c-.137-5.776-.186-11.553-.218-17.33l-.017-2.754q-.039-7.186-.06-14.373-.021-5.927-.082-11.853c-.05-4.8-.074-9.6-.081-14.4a577 577 0 0 0-.046-5.464 496 496 0 0 1-.024-7.616l-.05-2.264c.047-3.916.475-5.614 2.982-8.688C991 1277 991 1277 994 1275"/><path fill="#7a8eb8" d="M298 1265a5235 5235 0 0 1 14.044-.055q2.391-.008 4.781-.02 3.43-.017 6.859-.023l2.171-.015c1.716 0 3.43.051 5.145.113 1 1 1 1 1.098 4.16l-.036 3.902-.027 3.91L332 1280l-12 1v96l12 1v15h-1l-1-9c-3.492-.1-6.594.222-10 1l-1.375-1.875c-1.596-2.184-1.596-2.184-3.625-4.125h-3l-1-4 3-2c1.298-4.72 1.119-9.277 0-14-.04-2.333-.043-4.667 0-7 0-1.745-.008-3.49-.035-5.234-.043-3.977.025-7.694.598-11.641.408-2.915.314-4.396-.563-7.125 0-3 0-3 .563-5.562.687-2.436.687-2.436-.563-4.438-.03-3.023.067-6.033.16-9.055.044-2.896.044-2.896-1.226-5.015-1.28-2.645-.601-4.109.066-6.93.028-3.027-.064-6.037-.16-9.062.167-3.075.923-5.144 2.16-7.938v-2l1.875-.187L319 1277a125 125 0 0 0 2-5l3-1 4 4c2.268-1.833 2.268-1.833 2.188-4.562.082-2.385.082-2.385-1.188-3.438-2.8-.074-5.576-.092-8.375-.062l-2.367.013q-3.129.02-6.258.049h-3q-3.037.508-6.062 1.074c-1.938-.074-1.938-.074-3.56-1.579zm11 38h3l-1 3h-3z"/><path fill="#748ab7" d="M175 1265c6.295-.077 12.59-.129 18.884-.165q3.203-.022 6.407-.061c22.165-.265 39.045 2.022 56.709 16.226h-3l-3 1-2.187-2.375c-2.705-2.524-4.38-3.48-7.813-4.625l-1.937-1.062c-2.18-1.102-2.18-1.102-5.25-1.438L231 1272l-1-2 1 6h3c1.208 3.623.543 4.641-1 8l-2.4-.275q-5.393-.616-10.787-1.225l-3.776-.434-3.642-.41-3.349-.38A73 73 0 0 0 201 1281c-1.062-1.875-1.062-1.875-2-4 1.392-2.784 3.156-2.979 6-4-1.656-1.656-3.323-3.136-5.125-4.625L197 1266c-1.011 3.05-1.011 3.05 0 6l-2 2-1-2-5 1-1-3h4c-4.672-1.844-8.963-2.36-13.926-2.656L176 1267z"/><path fill="#5173af" d="m311 1364 4 3-1 4 2 1-2 5-3-2v-2h2l-1-3.375c-1-3.625-1-3.625-1-5.625m-2 10c2.51 1.255 2.871 2.5 4 5l5-1 2 6 3.25-.562C327 1383 327 1383 331 1384v10c-14.375.105-28.658.026-43-1a558 558 0 0 1-.062-4.309l-.036-2.423c.118-2.743.843-4.836 2.098-7.268 7.625.875 7.625.875 11 2l.813-2.375c1.67-3.695 3.138-4.625 7.187-4.625"/><path fill="#5174af" d="M459 1375c2.964 2.808 5.445 5.183 7 9l3.375-.625L473 1383c3.129 3.129 4.429 5.658 5 10-1.774 1.774-4.137 1.128-6.5 1.139l-2.332-.006-2.388.003q-2.509 0-5.017-.006c-2.554-.005-5.109 0-7.663.007q-2.434 0-4.87-.004l-2.314.006c-3.546-.016-6.448-.272-9.916-1.139l-1-13 10-4 1 2c4.057 1.853 4.057 1.853 8.313 1.25 1.83-1.159 1.83-1.159 2.687-3.25z"/><path fill="#5e7cb2" d="M828 1265c3.396 1.835 5.687 3.926 8 7-2.076.553-3.844 1-6 1l-1 2h-4l2 3 2-1 .684 6.152c.135 1.86.135 1.86 1.316 2.848h1c.39 1.287.761 2.58 1.125 3.875l.633 2.18L834 1294l-2 2-2-4 1 6 2-1 1 3c-2.606.93-3.642 1.15-6.25.063L826 1299v4l4 2-1 4h-2l-1-3-2-1c.095.626.19 1.253.29 1.898.11.818.22 1.635.335 2.477l.352 2.46L825 1314l-2 2c-1.024-4.211-1.115-8.162-1.098-12.488l.005-2.131c.005-2.231.018-4.462.03-6.694q.008-2.277.014-4.556.017-5.565.049-11.131c-6.533.795-6.533.795-13 2-.889-3.082-1.193-5.92-1.25-9.125l-.078-2.633L808 1267c5.387-3.591 13.68-3.15 20-2"/><path fill="#7289b6" d="M1145 1278c5.191 7.787 5.191 7.787 4.625 11.375L1149 1292c.125 1.4.295 2.797.5 4.188.5 3.812.5 3.812-.5 5.812l1 3a169 169 0 0 1-2 6q.002 3.36.035 6.723.015 2.17.027 4.34l.026 2.22c.025 5.49.025 5.49-1.088 7.717q.36 2.691.738 5.379c.625 6.257.98 13.055-.265 19.238-1.21 6.094.28 12.692 2.527 18.383-1.26 1.2-2.533 2.384-3.812 3.563l-2.145 2.003L1142 1382l-3-1-3 1-1 10 2 1h-3q-.118-3.187-.187-6.375l-.106-3.586.293-3.039c2.918-1.945 4.625-2.453 8-3l.025-3.669q.116-17.085.263-34.17.076-8.783.134-17.567.056-8.471.136-16.943.029-3.237.045-6.476c.017-3.014.046-6.029.078-9.044l.007-2.726c.084-6.177.084-6.177 2.312-8.405"/><path fill="#4e72af" d="m1527 1377 2.313 2.063L1532 1381l3-1q2.512.44 5 1h3v13c-14.041.101-27.995.079-42-1q-.118-2.686-.187-5.375l-.106-3.023.293-2.602c3-2 3-2 5-1.625l2 .625h3l2 2 4-3 1 3c3.298-.569 4.8-1.5 7-4z"/><path fill="#5274af" d="m376 1375 2 3q1.483 2.106 3 4.188l1.563 2.167L384 1386h2c.125 2.375.125 2.375 0 5-2.894 2.894-5.98 2.51-9.875 2.688l-2.378.122c-9.273.388-18.497-.182-27.747-.81-.081-1.603-.14-3.208-.187-4.812l-.106-2.708c.342-2.896 1.047-3.706 3.293-5.48 2.468 1.152 4.048 2.048 6 4 3.161-1.37 3.993-1.99 6-5l1.75.625c2.814.47 3.825-.217 6.25-1.625 3-1 3-1 6-1z"/><path fill="#4d71ae" d="M836 1376h2l1.25 2.438c1.547 2.847 1.547 2.847 4.75 3.437 3.052.305 3.052.305 6-.875.776 3.394 1.282 6.516 1 10-4.768 4.768-16.075 3.062-22.562 3.125-6.507-.048-12.961-.531-19.438-1.125q-.079-2.655-.125-5.312l-.07-2.989C809 1382 809 1382 811 1379l2.25 1.438c2.561 1.63 2.561 1.63 4.938 2.062 1.812.5 1.812.5 3.812 3.5l1.375-1.437C825 1383 825 1383 827 1382l2-3 2 4 1.023-1.531 1.352-1.969 1.336-1.969z"/><path fill="#f4f6f9" d="M1299 1298h2c3.694 4.762 5.902 10.019 8.188 15.563l1.076 2.537c1.641 3.934 3.153 7.644 3.736 11.9-4.003 2.001-9.1 1.185-13.5 1.188l-3.246.037-3.098.005-2.85.013C1289 1329 1289 1329 1287 1327l.779-1.8q1.77-4.1 3.534-8.2l1.224-2.832c2.298-5.344 4.471-10.702 6.463-16.168"/><path fill="#f7f8fa" d="M411 1297c3 1 3 1 4.35 3.652l1.35 3.5.726 1.865a524 524 0 0 1 1.5 3.911 687 687 0 0 0 2.31 5.992C425 1325.662 425 1325.662 425 1328c-5.329 1.11-10.463 1.115-15.875 1.063l-2.664-.014q-3.23-.02-6.461-.049c-1.178-2.853-.989-4.034-.012-7.024l1.54-3.492.81-1.866a770 770 0 0 1 2.6-5.868l1.748-3.992q2.14-4.887 4.314-9.758"/><path fill="#5274af" d="M1251 1380c3.375 1.186 5.647 2.276 8 5l3-2h4l2.563-.562C1271 1382 1271 1382 1274 1383l2 10c-5.306 1.061-10.117 1.191-15.5 1.188l-2.961.001c-7.354-.053-14.33-.665-21.539-2.189.86-5.758.86-5.758 2.125-7.937 3.013-1.708 5.606-.741 8.875-.063v-2l4-1z"/><path fill="#798db7" d="M259 1313c1.968 2.952 2.416 4.418 3 7.813.545 3.03 1.138 5.545 2.25 8.437.974 3.57.142 5.379-1.25 8.75q-.506 1.998-1 4a273 273 0 0 1-1.5 4.563l-.781 2.316L259 1351l-1 3h-2l-2 6h-2l-.625 2.063c-2.212 4.726-5.219 8.91-10 11.187L239 1374a100 100 0 0 0-4 3l-2 1-2 2-3-2-1 3c-3.879 1.39-6.865 2-11 2q-2.689.264-5.375.563c-8.052.72-8.052.72-11.625-.563-1.92-3.689-2.245-6.773-2.227-10.892v-3.518l.032-3.766.008-3.88q.014-5.086.05-10.174c.02-3.466.03-6.931.04-10.397q.033-10.187.097-20.373h1l1 58c27.721-.651 27.721-.651 48.844-14.758 1.53-1.678 2.857-3.38 4.156-5.242l1.363-1.945c8.162-13.05 7.225-28.394 5.637-43.055"/><path fill="#7a8eb8" d="M1650 1278h4v2l-13 1c-.94 8.451-1.122 16.794-1.075 25.283q.019 3.52.024 7.04.018 7.464.051 14.927.037 8.678.056 17.357.01 3.452.032 6.905l.01 4.259.016 3.728c-.116 3.566-.544 6.981-1.114 10.501l-2-1c-.45-1.926-.45-1.926-.687-4.312l-.262-2.364c-.051-2.324-.051-2.324.492-4.367.552-2.362.137-3.648-.543-5.957a135 135 0 0 1-.625-4.687c-.095-.788-.19-1.576-.29-2.387-.027-.636-.056-1.271-.085-1.926l1-1c.113-2.425.164-4.82.168-7.246l.01-2.201q.007-2.309.007-4.618c.002-2.36.02-4.718.04-7.078q.005-2.238.005-4.478l.022-2.147c.1-4.066.1-4.066-2.252-7.232l2-2a171 171 0 0 0-1-5c-.004-2.342.062-4.672.16-7.012.037-2.223.037-2.223-2.16-3.988l2-2c.167-3.083.167-3.083 0-6l1.875-.812c2.425-1.144 2.425-1.144 4.125-4.188 3.848-1.316 5.53-.903 9 1"/><path fill="#7b8fb8" d="m1527 1290 3 1 1 86 13 1v15h-1l-1-12c-5.653 1.042-5.653 1.042-11 3-2.206-3.357-3.375-6.04-4-10l-1-3 1-3-1-1c-.1-1.602-.13-3.208-.125-4.812l-.008-2.645c.122-2.33.478-4.312 1.133-6.543l-2-1c0-4 0-4 2-6 .293-2.468.293-2.468.227-5.368v-3.397l-.032-3.68-.008-3.758q-.016-4.947-.05-9.894c-.02-3.365-.03-6.73-.04-10.094q-.033-9.904-.097-19.809"/><path fill="#7c90b8" d="M1584 1280h2v98h13l1 3-2 2-4-2-2 2-6-2v-2l-3-1 .035-3.36q.015-2.194.027-4.39l.026-2.21c.038-4.12.038-4.12-.625-8.166-.463-1.874-.463-1.874.037-3.749.675-2.25.675-2.25 0-5.062-.523-3.203-.143-4.922.5-8.063.317-6.6.317-6.6-1-13a176 176 0 0 1 1-5c.04-1.666.044-3.334 0-5v-3l-.562-2.625L1582 1312l1-1c.044-1.666.04-3.334 0-5 0-2.292.026-4.584.063-6.875.008-2.437-.123-4.41-.626-6.812-.52-2.756-.114-4.605.563-7.313l.563-2.812z"/><path fill="#5777b0" d="m1389.188 1264.938 3.855.027 2.957.035-3 1 1 7 1-1c2.223 3.335 2.11 4.997 2.004 8.89-.055 2.351-.055 2.351.496 5.61.958 6.707.644 12.069-1.5 18.5h-1l-1-25-9.96.879c-3.04.121-3.04.121-5.04-.879v-14c3.56-1.187 6.438-1.097 10.188-1.062"/><path fill="#c0cbde" d="M998.77 1279.81c6.517.068 12.829.981 19.23 2.19v1a128 128 0 0 1-16.492-.777c-3.847-.342-7.649-.285-11.508-.223l.493 2.957c.604 4.256.64 8.44.62 12.732l.001 2.545c0 2.754-.008 5.508-.016 8.262l-.005 5.755q-.006 7.548-.024 15.096-.014 7.712-.02 15.424-.016 15.115-.049 30.229c3.492.607 6.699 1.13 10.242.914l2.293-.133 2.34-.156 2.316-.133c4.97-.304 9.875-.829 14.809-1.492-2.852 2.852-5.967 2.72-9.812 3.125l-2.296.253c-6.573.677-13.305 1.339-19.892.622-2.42-2.42-2.263-3.037-2.319-6.353l-.06-2.755-.035-3.013-.059-3.138c-.06-3.392-.107-6.785-.152-10.179l-.113-6.978a3026 3026 0 0 1-.387-40.709l-.008-2.147c-.021-7.312.028-14.49 1.133-21.728 2.214-2.214 6.782-1.187 9.77-1.19"/><path fill="#617eb2" d="M1812 1265q7.635-.037 15.271-.055 2.598-.008 5.197-.02 3.731-.017 7.462-.023l2.355-.015c5.487 0 5.487 0 7.715 1.113.45 2.652.45 2.652.688 5.938l.261 3.277C1851 1278 1851 1278 1850 1280h-18c1-2 1-2 3-3v2l3-1-2-2c.375-3.625.375-3.625 1-7h2c-1.818-2.244-1.818-2.244-4.43-2.227l-3.015.032-3.262.02-3.418.05-3.441.027q-4.218.036-8.434.098z"/><path fill="#7289b6" d="M820 1274c1.546 2.06 3.07 4.106 4.5 6.25l1.5 1.75h3l1 5 2-1c.39 1.287.761 2.58 1.125 3.875l.633 2.18L834 1294l-2 2-2-4 1 6 2-1 1 3c-2.606.93-3.642 1.15-6.25.063L826 1299v4l4 2-1 4h-2l-1-3-2-1c.095.626.19 1.253.29 1.898.11.818.22 1.635.335 2.477l.352 2.46L825 1314l-2 2c-1.024-4.211-1.115-8.162-1.098-12.488l.005-2.131c.005-2.231.018-4.462.03-6.694q.008-2.277.014-4.556.017-5.565.049-11.131h-8c3.75-3.875 3.75-3.875 6-5"/><path fill="#5878b0" d="m1698.563 1363.875 3.003-.008C1704 1364 1704 1364 1705 1365c.072 1.686.084 3.375.063 5.063l-.028 2.785L1705 1375l-2.937 1.375c-3.134 1.283-3.134 1.283-4.063 3.625h-2l-1 3-4-2-1 2c-1.249-3.746-.715-6.805-.187-10.625l.251-2.102c.237-1.77.58-3.524.936-5.273 2.623-1.312 4.637-1.133 7.563-1.125"/><path fill="#7a8eb8" d="M1163 1274h4l2 2c2.568.244 2.568.244 5.438.125l2.933-.055 2.629-.07c3 0 3 0 6 1l2-3 1 2c2.025.652 2.025.652 4 1l2-3 2.063.438c3.3.631 6.608 1.105 9.937 1.562l1 7-2-2c-2.013-.298-2.013-.298-4.342-.243l-2.72-.01-2.942.023h-3.01q-3.155.006-6.308.024c-3.23.018-6.461.02-9.692.02l-6.115.018-2.948.003-2.71.02-2.398.011c-1.836-.063-1.836-.063-2.815 1.134a168 168 0 0 0-.562 6.563l-.254 3.628L1159 1295l-2-1c-.218-6.009-.337-11.39 2-17 2.125-1.437 2.125-1.437 4-2z"/><path fill="#6580b3" d="m302 1281 3 1c1.188 2.563 1.188 2.563 2 5h2l1-3 2 1-1.125 3.625c-1.032 4.029-.606 6.528 1.125 10.375l-5 4-2-3c-.105 2.21-.105 2.21 1 5l-1 3h3c-.312 1.938-.312 1.938-1 4l-3 1-1 16h-1z"/><path fill="#7c90b8" d="M838 1300h1v78c8.104.474 8.104.474 12-1 1.756 1.756 1.132 4.036 1.137 6.371l-.012 2.129.012 2.129c-.01 5.244-.01 5.244-1.137 6.371-2.67.141-5.324.042-8 0v-1l7-2c.27-4.65.27-4.65-1-9l-3 1c-4 0-4 0-6.187-1.437-4.303-6.083-2.933-15.995-2.875-23.204l.011-3.288q.019-5.16.051-10.321.04-6.82.063-13.64l.025-3.151.01-2.944.016-2.576c-.055-2.489-.055-2.489-.644-5.08-.607-3.044-.056-5.312.53-8.359.368-2.996.686-5.997 1-9"/><path fill="#7e91b9" d="M236 688h1v38c-16.93.04-16.93.04-24.123.049q-7.375.008-14.749.026-5.942.016-11.885.02-2.272.003-4.544.01-3.172.01-6.343.009l-3.654.006C169 726 169 726 168 725c-.41-3.799-.517-7.622-.687-11.437l-.182-3.26-.143-3.112-.14-2.868C167 702 167 702 169 700v24l6.25-.5c19.936-1.36 40.992-1.793 60.75 1.5z"/><path fill="#7d90b8" d="M1841 721c1 3.875 1 3.875 1 5h-70l1-2c6.121-1.33 12.32-1.145 18.559-1.133l3.342-.003q3.49 0 6.977.006c3.544.005 7.088 0 10.632-.007q3.399 0 6.799.004l3.188-.006c5.596.018 10.968.307 16.503 1.139zM635 1302h2c.902 5.352 1.12 10.466 1.063 15.887q-.014 2.623-.026 5.246l-.019 2.751c-.116 17.734.128 35.4.982 53.116l-3 1c-.883-8.632-1.097-17.14-1-25.812.075-6.856.089-13.403-1-20.188a209 209 0 0 1-.062-7.437l.027-3.747L634 1320h2l-.5-3.375c-.62-4.88-.59-9.714-.5-14.625"/><path fill="#798db8" d="m1637 1372 3 1v4l3.976-.016q7.3-.026 14.603-.039 3.16-.008 6.32-.02 4.543-.017 9.085-.023l2.854-.015h2.669l2.342-.007c2.168.121 4.067.523 6.151 1.12l-2 4-1.812-.625c-2.473-.682-2.473-.682-5.188 1.625l-6-4-1 2c-2.612 1.064-4.127.978-6.937.5-2.975-.67-2.975-.67-5.563 0-2.5.5-2.5.5-5.437 0-3.057-.677-3.057-.677-6.063.063-3.628.529-5.684-.056-9-1.563-2.197-3.295-2-4.055-2-8"/><path fill="#6c85b5" d="M1514 1312h1l1 60 6-2c-.55 3.848-2.32 5.32-5 8v3c-2 1.688-2 1.688-4 3l-3-3-2 1q-3.511-.421-7-1l1-4h12zm4 65 3 3-3-1zm3 0 2 2h-2z"/><path fill="#748ab7" d="M238.563 1281.688C241 1282 241 1282 243 1284l2 .438c2 .562 2 .562 4 3.562l2.438 1.75c3.177 2.79 4.213 5.274 5.562 9.25v4l2 1-1 1a100 100 0 0 0 0 5 92 92 0 0 1-4.75-6.75c-5.658-8.173-11.62-13.257-20.25-18.25 2.68-2.96 2.68-2.96 5.563-3.312"/><path fill="#7a8eb8" d="m1158 1376 3 1c2.733.228 5.45.417 8.188.563l2.271.13q2.77.158 5.541.307c.664 3.64 1.138 7.111 1.125 10.813l.008 2.332C1178 1393 1178 1393 1177 1394c-2.02.072-4.042.084-6.062.063l-3.348-.028-2.59-.035v-2h12l-3-8c-2.533-.07-4.724-.071-7.187.563C1165 1385 1165 1385 1163 1384l-1 2c-2.2-2.2-4.074-4.56-6-7z"/><path fill="#7188b6" d="M1623 1314c4 2 4 2 4.68 3.875l.195 2.125.242 2.125C1628 1324 1628 1324 1626 1326h-1v6l2-2c1.206 4.944.63 8.209-1 13h-1a2293.787 2293.787 0 0 1 .11 13.88q.015 2.36.04 4.72c.025 2.263.036 4.527.045 6.79l.032 2.125c0 3.623-.039 6.5-2.227 9.485-2.625.75-2.625.75-5 1v-3l4-1z"/><path fill="#c0cbde" d="m944.625 1279.938 2.14.013q2.618.02 5.235.049v1l-16 1 1 117-2 1-2-1v-2h2c-.01-.86-.01-.86-.018-1.738q-.222-20.932-.425-41.864-.098-10.122-.205-20.245-.104-9.765-.195-19.53-.036-3.728-.078-7.458-.056-5.215-.1-10.43l-.04-3.13-.021-2.872-.025-2.492c.107-2.244.363-4.12 1.107-6.241 3.065-1.533 6.268-1.103 9.625-1.062"/><path fill="#7d90b8" d="M1135 1265h88l-1 2-2.4-.016q-5.393-.029-10.787-.046l-3.776-.026-3.642-.01-3.349-.016c-3.02.03-3.02.03-5.82.683C1190 1268 1190 1268 1188 1267a67 67 0 0 0-4.339-.098l-2.721.01-2.952.025-3.035.012c-4.294.016-8.588.044-12.881.072q-4.698.026-9.396.042l-2.92.025c-5.036.018-9.794-.219-14.756-1.088z"/><path fill="#7b8fb8" d="m1279 1345 1 2c-.789 2.227-.789 2.227-2.055 4.98l-1.363 3.03-2.89 6.297c-2.38 5.289-4.314 9.88-4.692 15.693l7 3v11l-2-1a109 109 0 0 1-1-7l-2 1v-2l-3-1c-2.7-4.05-2.552-7.243-2-12 .836-2.439 1.902-4.66 3-7l-1-2h2l1-3 2-2-.062-2.437c.062-2.563.062-2.563 1.374-4.25 1.51-1.175 3.096-2.252 4.688-3.313"/><path fill="#5878b1" d="M810.848 1265.902 817 1266l4 8c-3 3-3 3-5.125 3.5l-1.875.5-1 3h-4c-.917-3.124-1.135-5.937-1.125-9.187l-.008-2.668c.167-2.697.274-3.1 2.98-3.243"/><path fill="#7c8fb8" d="M1410 1329h1v49l12-1c1 1 1 1 1.098 4.379q-.01 2.091-.035 4.184l-.014 2.154q-.02 2.64-.049 5.283l-2-1v-8c-3.522-.08-6.62-.04-10 1-2.51-5.793-2.255-11.334-2.195-17.523l.008-3.338c.011-3.505.037-7.01.062-10.514q.016-3.572.027-7.145.034-8.74.098-17.48M781 1332h1c.202 6.36-.372 11.852-2 18h-2l-.375 2.188c-.615 2.77-1.51 5.209-2.625 7.812h-2l-1 4h-2l-.562 2.25c-2.408 4.605-6.58 6.13-11.438 7.75l-1 2a134 134 0 0 1-6 3l-1.89 1.05c-5.115 2.302-11.764 2.554-17.11.95v-1l2.492-.297c13.934-1.866 25.427-6.4 34.758-17.328 6.911-9.233 10.556-18.948 11.75-30.375"/><path fill="#7e91b9" d="m1254 1368 2 4h-2l.25 2.25c-.329 3.614-1.544 4.42-4.25 6.75l-1.937 2.25c-2.574 2.183-3.778 2.003-7.063 1.75l-3 1-1 5 4 2h-6q-.079-2.625-.125-5.25l-.07-2.953c.2-2.882.491-4.472 2.195-6.797 1.875-.68 1.875-.68 4-.875l2.125-.242C1245 1377 1245 1377 1247 1379c2.406-2.185 3.795-4.26 5.188-7.187l1.042-2.168z"/><path fill="#c0cbde" d="M167 708h1l1 17 6.496-.035c20.523-.085 40.995.274 61.504 1.035v1a18803 18803 0 0 1-18.5.427q-3.131.072-6.262.146-10.619.251-21.238.427l-3.069.054c-2.921.046-5.842.077-8.763.102l-2.674.045-2.462.012-2.15.022C170 728 170 728 167 726a79 79 0 0 1-.75-8.562l-.129-2.405c-.093-2.01-.113-4.022-.121-6.033z"/><path fill="#7b8fb8" d="M261 1369c0 3 0 3-1.215 4.613-10.559 10.416-25.11 18.433-40.285 18.512L216 1392c2.569-2.569 4.122-2.468 7.688-2.937 4.933-.76 8.942-1.635 13.312-4.063l1-3 2.125.25c3.846-.334 5.884-1.885 8.875-4.25v-2l2.25.375L254 1376c2.16-2.907 2.16-2.907 4-6z"/><path fill="#c0cbde" d="M917 1284h2v78c-5-3-5-3-6-5h4z"/><path fill="#748ab6" d="m1623 1280 5 2v9l2 1-1 5-3-1 1.125 3.313.875 3.687-2 3c-.167 2.625-.167 2.625 0 5h-3z"/><path fill="#5374af" d="M1632.813 1316.063c1.743 2.844.94 4.792.187 7.937v4l2 1h-2l-.812 2.938L1631 1335l-3 1-2-3-2-2c-.125-3.125-.125-3.125 0-6l3-1v-8c2.48-.94 3.467-1.312 5.813.063"/><path fill="#788db7" d="m1304 1296 2 6-2 2c-3-3.75-3-3.75-3-6-2.29.869-2.29.869-3.078 3.668l-1.172 3.52c-2.54 7.448-5.567 14.616-8.75 21.812-1.062-3.758-1.062-3.758-.5-5.937.632-2.607.143-4.49-.5-7.063l4-1c.597-2.763 1-5.16 1-8 .625-3.562.625-3.562 2-7 3.612-1.806 5.943-2 10-2"/><path fill="#7a8eb8" d="m776 1372 2 4c-19.045 15.373-19.045 15.373-32 16 2-2 2-2 5-2.812 3.21-.893 3.21-.893 4.375-3.813L756 1383l6.152-.586L764 1382l1-2h3l2-2 2.563-1.437c2.728-1.39 2.728-1.39 3.437-4.563"/><path fill="#7d90b8" d="m699 1288 2 1-4 2v2h-2l-.82 1.746c-1.19 2.274-2.555 4.237-4.055 6.316-8.286 12.399-8.356 25.488-8.125 39.938l-2-1c-2.478-13.629-.406-24.838 5.938-37.062l1.017-1.988c1.909-3.516 3.277-5.513 7.045-6.95a90 90 0 0 0 2-4z"/><path fill="#7c8fb8" d="M458 1369a42.4 42.4 0 0 1 5 8l2.3-.035c.995-.01 1.989-.018 3.012-.027l2.989-.036C474 1377 474 1377 477 1378v10c-3-1-3-1-5-3h-3c-2.684-.342-3.684-.61-5.414-2.742l-1.211-2.133-1.227-2.117L460 1376l-2-3z"/><path fill="#788db7" d="m1207 1284 3.375.563c3.45.754 3.45.754 5.625-.563 1.063 1.813 1.063 1.813 2 4l-1 3 2 1-1 1 5 1v1h-15z"/><path fill="#7a8eb8" d="M518 1365h1v13l12-1c.724 3.622 1.116 6.238 1.063 9.813l-.028 2.394L532 1391h-1l-1-7c-3.017-.092-3.017-.092-6 .563-3 .437-3 .437-6-.563z"/><path fill="#7b8fb8" d="M823 1363h1c1.61 12.034 1.61 12.034-1 18-1.812 2.063-1.812 2.063-4 3-2.562-.75-2.562-.75-5-2l-3-1c-1.74 1.74-1.372 4.194-1.562 6.563l-.254 3.066L809 1393h-1v-15c3.473-.695 5.913-1.12 9.313-1.062L821 1377l.184-2.3.254-3.013c.08-.986.162-1.972.246-2.988C822 1366 822 1366 823 1363"/><path fill="#5c7bb1" d="M230 1269h3l1 3 2 1 1-2v2l3-1c1 5.875 1 5.875 1 7l1 3h-2l-1 2-3-1-3 1 1-6h-4c-.879-6.152-.879-6.152-1-8z"/><path fill="#798eb8" d="m1395 1376 1 4c-1.75 2.25-1.75 2.25-4 4-3.38 0-5.835-.875-9-2l-1 2-1-1-1 9h-1v-14z"/><path fill="#778cb7" d="M227 1267c12.36.916 20.587 6.43 30 14h-3l-3 1-2.187-2.375c-2.705-2.524-4.38-3.48-7.813-4.625l-1.937-1.062c-2.145-1.107-2.145-1.107-5.063-1.25-3.843-.881-4.86-2.479-7-5.688"/><path fill="#798eb8" d="m1350 1376 3.563.5c2.86.366 5.467.5 8.374.5H1365c1 1 1 1 1.098 3.066l-.035 2.496-.028 2.504L1366 1387c-3 0-3 0-4.687-1.5L1360 1384l-3 1c-1.824-1.11-1.824-1.11-3.687-2.75l-1.887-1.61C1350 1379 1350 1379 1350 1376"/><path fill="#627fb3" d="m1634 1362 1 2h2l2 8h-2l-1 6-3-3-4 2c-1.478-2.955-.562-5.051.254-8.156.746-1.844.746-1.844 2.871-3.344l1.875-.5z"/><path fill="#6c85b5" d="M411 1297c-2.751 8.9-6.403 17.416-10 26l-.414-1.82c-.562-2.354-.562-2.354-1.961-5.055L398 1313c2.359-3.504 4.49-5.66 8-8l-1-2 2-1-1-3c3-2 3-2 5-2"/><path fill="#7b8fb8" d="m1051 1368 2 2-2 3h-2v2h-2l-1 3a85 85 0 0 1-6.25 4.063c-.574.35-1.147.702-1.738 1.064-8.088 4.873-8.088 4.873-13.012 4.873l1-2h3l1-2c1.25-2.125 1.25-2.125 3-4 2.688-.25 2.688-.25 5 0v-2l2.813-.812c4.373-1.63 5.634-3.358 8.187-7.188z"/><path fill="#637fb3" d="m509 1346 .375 1.938L510 1350l2 1-.219 1.863-.281 2.45-.281 2.425c-.267 2.381-.267 2.381-.219 5.262l-2 3h-2v-3h-2l-1 2v-2l-2-1 2-4 3 1v-6l2-1-2-4z"/><path fill="#7b8fb8" d="M1395 1275c2.064 3.44 2.375 6.401 2.625 10.375l.227 3.336c.271 6.017-.027 10.587-1.852 16.289h-1l-1-25h-10c3.945-2.959 5.366-3.382 10-4z"/><path fill="#6f87b6" d="M1836 1273c4.875 1.875 4.875 1.875 6 3l2-2c2.563-.187 2.563-.187 5 0 1 1 1 1 2 4l-1 2h-18c1-2 1-2 3-3v2l3-1-2-2z"/><path fill="#607db2" d="M1520 1368h3l2 8h2c-.812 2.438-.812 2.438-2 5l-3 1-1 2-4-1 1.063-1.75c1.18-2.187 1.18-2.187.374-4.312L1518 1375l3-3c-.228-2.163-.228-2.163-1-4m1 9v2l2-1zm-5 0h2l-1 2z"/><path fill="#7b8fb8" d="m377 1375 1.063 1.375c2.708 2.272 5.545 2.793 8.937 3.625v14h-12v-1l9-1 1-4c-2.27-2.52-2.27-2.52-5-5-3-4.345-3-4.345-3-8"/><path fill="#6681b4" d="M500 1270c2 2 2 2 2 3h3c3.15 2.7 5.528 4.748 6 9l-1.875-1c-2.035-1.142-2.035-1.142-4.125-1l-2 2c-1.708-1.634-2.935-2.87-4-5l-3 1v-3h3l-1-3z"/><path fill="#7b8fb8" d="m361 1376 2 3-4 4-2-1-1 4-4.395-3.906c-1.694-1.376-1.694-1.376-4.605-1.094l1-4 2.59.035 3.348.027 3.34.036c2.636.215 2.636.215 3.722-1.098"/><path fill="#5677b0" d="M1635 1334c1.858 3.135 2.201 5.375 2 9l-1.937.875c-2.215.953-2.215.953-3.063 3.125h-2l-1 2-3-1c.75-4.75.75-4.75 3-7 2.125.375 2.125.375 4 1l1-2-3-1 1-2h2z"/><path fill="#5073af" d="m327.75 1266.25 2.25.75c.826 2.892 1 4.887 1 8l-3 1-2-2a70 70 0 0 0-4 1l-2-1c.39-2.723 1.067-4.089 2.75-6.312 2.25-1.688 2.25-1.688 5-1.438"/><path fill="#6681b3" d="m309 1307 2 4 2-1v2h2v6l-3-1-2 5-4-4-1 2-1-2 1-3 3-1z"/><path fill="#6883b4" d="m1393 1270 2 4 1-2 1 3-2.375.875c-2.722.974-2.722.974-4.625 3.125v-2h-2v-2l2-1-1-3c2-1 2-1 4-1m-14 5 1.75.563c2.457.477 3.894.194 6.25-.563l2 4-2.312.438c-2.77.525-2.77.525-5.688 1.562l-2-1z"/><path fill="#7c8fb8" d="M288 1266h1l1 11 3 1 2-4 3 1c2.143-.39 2.143-.39 4-1l1 6q-3.186.33-6.375.625l-3.586.352L290 1281c-2-2-2-2-2.195-5.04l.07-3.585.055-3.602z"/><path fill="#7e91b9" d="M1623 1336h2q.074 8.435.11 16.87.015 2.87.04 5.738c.025 2.75.036 5.5.045 8.251l.032 2.59v2.425l.014 2.126c-.289 2.397-.938 3.972-2.241 6-2.625.75-2.625.75-5 1v-3l4-1z"/><path fill="#778cb7" d="m681 1367 1.625 2.25c2.529 2.928 5.14 4.666 8.375 6.75l1 2 2.5 1.375c2.5 1.625 2.5 1.625 3.313 3.813L698 1385c-4.173-1.398-6.88-3.36-10.125-6.312l-2.57-2.301c-2.267-2.347-3.88-4.455-5.305-7.387z"/><path fill="#788db7" d="M302 1296h2c.553 2.076 1 3.844 1 6l1 3-1 3h3c-.312 1.938-.312 1.938-1 4l-3 1-1 16h-1z"/><path fill="#7d90b8" d="M1556 1265q9.159-.037 18.317-.055 3.117-.008 6.236-.02 4.472-.017 8.943-.023l2.835-.015h2.608l2.308-.007c1.753.12 1.753.12 2.753 1.12.072 2.02.084 4.042.063 6.063l-.028 3.347-.035 2.59c-2-2-2-2-2.16-3.91l.098-2.152.062-3.938c-1.07-1.296-1.07-1.296-3.585-1.098l-3.435.035-3.79.024q-2.002.018-4.003.039c-9.129.092-18.101-.05-27.187-1z"/><path fill="#7b8fb8" d="M975 1265h31l-1 3-1.875-.562c-2.167-.675-2.167-.675-4.125.562-3.324-.177-6.62-.518-9.934-.844-3.107-.345-3.107-.345-6.066.844-3.204 0-5.094-.743-8-2z"/><path fill="#6c85b5" d="M1345 1364c1.962 2.943 3.582 5.76 5 9l-1 3c-3-1-3-1-4.187-3.062L1344 1371l-5 1-1-4c2.386-1.892 4.072-3.024 7-4"/><path fill="#c0cbde" d="m1250 1374 1 2-4 4-2-1v-2c-1.316.255-2.628.53-3.937.813l-2.215.457-1.848.73c-1.003 3.008-1.303 5.538-1.562 8.688l-.254 3.011L1235 1393c-2-2-2-2-2.047-4.715l.297-3.223.266-3.214C1234 1379 1234 1379 1236 1376c2.023-.582 2.023-.582 4.375-.812l2.336-.27c2.587.093 4.08.776 6.289 2.082z"/><path fill="#758bb7" d="m1555 1266 1 3 3 1c.813 1.875.813 1.875 1 4l-2 3h-2v2l3.063-1.125c4.224-1.242 6.866-.37 10.937 1.125l-1 2-14-1z"/><path fill="#7e91b9" d="M720.563 1390.875c8.192 1.87 16.184 1.37 24.437.125l1 2c-4.712 1.35-9.32 1.184-14.187 1.188l-2.752.037c-5.992.012-11.258-.725-17.061-2.225 3.39-1.847 4.8-2.13 8.563-1.125M1807 1377v17h-20v-1h19l-1-12c-3.747.783-3.747.783-6 2l-1-4c5.625-2 5.625-2 9-2"/><path fill="#6480b3" d="M379 1369c1 3 1 3 0 6h-3l-2 4-3-2 1-6 4-1 1 2zm-11 7 3 1c-1.377 2.754-3.367 3.515-6 5v-3l3-1z"/><path fill="#4f72af" d="m303 1305 3 6h2l1 4-2 1-2-1v4h3l2 4h-3v-2h-2l-1 2c-1-1-1-1-1.098-4.816q.01-2.374.036-4.746l.013-2.444q.02-2.997.049-5.994"/><path fill="#778cb7" d="m640 1273 6 1 1 3 5 1v2q-2.657-.213-5.312-.437l-2.989-.247C641 1279 641 1279 638 1278l-1 2c.613-2.962 1.254-4.38 3-7"/><path fill="#7b8fb8" d="M302 1372h1c.37 7.508.37 7.508-1.5 10l-1.5 1a129 129 0 0 1-7-2l-1-2h-2v4l-2-1v-4c4.386-.702 8.558-1.108 13-1z"/><path fill="#7e91b9" d="m973 1375 1 4c-2.312 2.063-2.312 2.063-5 4l-3-1-1 10 3 1h-4a499 499 0 0 1-.625-5.875l-.352-3.305L963 1381c2-2 2-2 5.563-3l3.437-1z"/><path fill="#798eb8" d="M1570 1378c-3.319 3.934-3.319 3.934-6.562 4.25L1561 1382c-3.053-.158-3.053-.158-6 1v-5q3.187-.29 6.375-.562l3.586-.317C1568 1377 1568 1377 1570 1378"/><path fill="#7b8fb8" d="M1502 1377h12l1 2h-2l1 3c-4.451 0-8.592-.335-13-1z"/><path fill="#617eb2" d="M1524 1329h3c.592 5.349 1.142 10.609 1 16-1.937-.812-1.937-.812-4-2l-1-3 2-1-.5-2.187c-.476-2.677-.577-5.102-.5-7.813"/><path fill="#6d86b5" d="m756 1281 1 2 1.938.438C761 1284 761 1284 763 1287a140 140 0 0 0 3.625 3.688l1.914 1.886L770 1294l-2 2-2.082-1.898-2.73-2.477-2.708-2.46c-2.476-2.256-2.476-2.256-5.48-4.165z"/><path fill="#6983b4" d="m825 1342 2 3 2-1c1.62 2.572 2.044 3.677 1.625 6.75L830 1353l-3-2-2 2v-2l-3-1h2z"/><path fill="#627fb3" d="M205 1265h4l4 8h-7c-1.354-2.709-1.065-5.01-1-8"/><path fill="#607db2" d="M764 1383c-1.964 1.506-3.783 2.891-6 4l-1 3c-3.76 1.623-6.92 2.24-11 2 2-2 2-2 5-2.812 3.212-.873 3.212-.873 4.188-3.75L756 1383c3.29-1.097 4.713-.8 8 0"/><path fill="#6480b3" d="m825 1299 2.188 1.438c2.707 1.504 4.774 2.128 7.812 2.562l-1 3a278 278 0 0 0-1 4 324 324 0 0 1-3.375-2.75l-1.898-1.547c-1.81-1.785-2.728-3.382-3.727-5.703z"/><path fill="#798db7" d="M652 1378c1 1 1 1 1.098 4.16l-.035 3.902-.028 3.91L653 1393h-1l-.148-2.336-.227-3.039c-.07-.998-.14-1.995-.21-3.023-.179-2.757-.179-2.757-2.415-4.602l-2.312 1.063C644 1382 644 1382 641 1381v-2c3.732-.878 7.167-1.174 11-1"/><path fill="#5e7cb2" d="M1174 1267h5v2h-2l-1 4h-2l-1 2-1-3-4 3-1-3c3.625-3 3.625-3 7-3z"/><path fill="#7c90b8" d="m184 1378-2 4-2.437-.562L177 1381c-1.286 1.06-1.286 1.06-1.098 3.504l.036 3.059.027 3.066L176 1393h-2v-15c7.75-1.125 7.75-1.125 10 0"/><path fill="#627fb3" d="M402 1309c1.494 2.372 2.04 3.61 1.75 6.438-.762 2.603-1.682 5.069-2.75 7.562l-.375-1.625c-.747-2.839-1.678-5.597-2.625-8.375l4-2z"/><path fill="#607db2" d="M1625 1324h4l.438 2.25c.464 2.27.98 4.508 1.562 6.75l-2 1c-2.625-.937-2.625-.937-5-2q-.062-3.5 0-7z"/><path fill="#6681b4" d="M365 1368c2.717 5.07 2.717 5.07 3 8-1.437 1.75-1.437 1.75-3 3l-3-1c.507-3.719 1.116-6.735 3-10"/><path fill="#617eb2" d="M509 1371c1.125 1.75 1.125 1.75 2 4-.942 2.67-1.986 3.986-4 6-2.625-.375-2.625-.375-5-1v-2h2c1.15-1.925 1.15-1.925 1-4l-1-2 4 1z"/><path fill="#7c90b8" d="M1025 1269c8.12 1.236 15.695 5.78 21 12-3.578-1.301-6.74-2.989-10.02-4.914-3.544-1.943-7.264-3.502-10.98-5.086z"/><path fill="#7b8fb8" d="M175 1265h17l-2 4c-5.273-.445-10.018-1.084-15-3z"/><path fill="#6681b3" d="m488 1379 5 2v3l-1.437 1.313c-2.184 2.358-2.216 4.561-2.563 7.687h-1z"/><path fill="#7289b6" d="m1774 1377 1 3-2 1-2-1-1 2-6-2-1 2v-4c3.674-1.176 7.17-1.074 11-1"/><path fill="#607db2" d="M313 1336h1l-1 7h-2l-2 2a198 198 0 0 1-5 3l-2-2 3.25-2.187c3.178-2.252 5.418-4.674 7.75-7.813"/><path fill="#6480b3" d="M1633 1279c1.125 3.75 1.125 3.75 0 6l4 1-3 3-3-2-2 3c-.492-6.4-.492-6.4 2-9.437z"/><path fill="#7b8fb8" d="M609 1378h12v3c-3.742 0-7.29-.513-11-1v5h-1z"/><path fill="#6681b3" d="M1522 1343c2.103 4.027 3 7.431 3 12l-3 2c-2.568-4.422-1.718-7.511-.508-12.207zM1451 1331c4.202 3.718 6.998 8.317 10 13h-3c-3-3.333-3-3.333-3-6l-4-2z"/><path fill="#5d7cb2" d="M185 1358h3v4l2 1 1 3-2 2v-2l-3 1-2-2c.375-3.625.375-3.625 1-7"/><path fill="#7e91b9" d="m1022 1387 3 2c-7.33 2.002-14.41 3.513-22 4v-2l2.887-.367 3.8-.508 3.762-.492c3.494-.483 3.494-.483 6.32-1.828z"/><path fill="#5f7cb2" d="M416 1293c2.063 2.063 2.063 2.063 4 5-.25 3.813-.25 3.813-1 7h-3c-1.19-4.313-.941-7.647 0-12"/><path fill="#6883b4" d="M246 1285c5 5 5 5 5.125 7.625L251 1295l-2-2h-4c0-3.113.174-5.108 1-8"/><path fill="#748ab6" d="m302 1281 3 1c.8 1.742.8 1.742 1.313 3.875l.55 2.117C307 1290 307 1290 305 1293v-3h-3z"/><path fill="#123979" d="M1334 1144h12l-1 5-2.75-.937c-4.678-1.906-4.678-1.906-9.25-1.063z"/><path fill="#7e91b9" d="m1302 1340 3 1 2-.5c2-.5 2-.5 5 .5l2-1a76 76 0 0 1 5 1v1c-3.837.904-7.375 1.106-11.312 1.063l-3.239-.028L1302 1343zM964 1266c2.094 3.402 2.18 6.053 2 10h4v3h-6c-.838-4.655-1.016-8.37 0-13"/><path fill="#7c8fb8" d="M811 1265h17v2l-2.187-.062c-2.792-.029-2.792-.029-5.375.624-3.606.648-6.012-.42-9.438-1.562z"/><path fill="#6f87b5" d="m784 1363 2 2a729 729 0 0 1-2.875 3.938l-1.617 2.214C780 1373 780 1373 778 1374c.445-5.04 2.713-7.376 6-11"/><path fill="#6d86b5" d="M1778 1318q2.007 2.494 4 5l1.813 2.125L1785 1327l-1 3c-3.01-2.006-4.784-3.555-6-7-.125-2.75-.125-2.75 0-5"/><path fill="#617eb2" d="m974 1265-1 2h-3l-2 4-3-1v-4c2.957-1.478 5.742-1.06 9-1"/><path fill="#7a8eb8" d="M1693 1364v3l.125 3.375c-.12 3.47-.515 5.583-2.125 8.625l-2 1q.422-3.72.875-7.437l.238-2.143c.226-1.817.55-3.62.887-5.42z"/><path fill="#748ab7" d="m1513 1300 3 3 2-3c.625 2.875.625 2.875 1 6l-2 2-1-2-2 4q-.543-1.935-1.062-3.875l-.598-2.18c-.34-1.945-.34-1.945.66-3.945"/><path fill="#6883b4" d="m1215 1284 3 4h-2l-1 3-1-2-3 2-1-4z"/><path fill="#6681b3" d="M449 1373h2l1 6h-6c.573-2.867.861-3.861 3-6"/><path fill="#627eb3" d="m1344 1365 1 3-5 4-2-2c2.258-5 2.258-5 6-5"/><path fill="#6882b4" d="M393 1302c1.373 4.119.417 6.69-.875 10.75L391 1315l-3 1c1.543-4.72 3.078-9.417 5-14"/><path fill="#7087b6" d="m1031 1286 4 1v2l4 1-2 4c-4.687-3.613-4.687-3.613-6-5z"/><path fill="#6681b3" d="M222 1269c-1.109 2.217-2.494 4.036-4 6l-2-3h-3v-3c3.64-1.213 5.36-1.213 9 0"/><path fill="#7e91b9" d="m1555 1277 1 2 3.063-1.125c4.224-1.242 6.866-.37 10.937 1.125l-1 2-14-1z"/><path fill="#6a84b4" d="M312 1374h4l1 7-2-2h-3c-.562-1.937-.562-1.937-1-4z"/><path fill="#6681b3" d="M509 1322h2v9l-4-2c-.125-2.375-.125-2.375 0-5z"/><path fill="#6c85b5" d="M845 1299c3.488 2.21 4.73 4.086 6 8-3 0-3 0-5.25-1.75-1.75-2.25-1.75-2.25-1.5-4.5z"/><path fill="#6882b4" d="m1210 1274 2 3 2 2h2l1 3c-3.138 0-4.398-.352-7-2-1-3-1-3 0-6"/><path fill="#5978b1" d="M224 1269c2.248 2.052 3.002 3.007 4 6l-3 3c-1.5-1.375-1.5-1.375-3-3v-2h2z"/><path fill="#6e86b5" d="m681 1367 1.875 2.438c1.867 2.6 1.867 2.6 4.125 3.562v3c-3.807-1.444-5.266-3.35-7-7z"/><path fill="#607db2" d="M1523 1362h2a136 136 0 0 1 3 7l-1 2h-2c-1.498-3.371-2-5.204-2-9"/><path fill="#778cb7" d="M1039 1292c3 1 3 1 4.75 3.875C1045 1299 1045 1299 1044 1302l-6-8z"/><path fill="#7e91b9" d="m820 1274 3 4-1 2-8-1c3.75-3.875 3.75-3.875 6-5"/><path fill="#6983b4" d="m1846 1265 4 1v7h-2c-2-5.75-2-5.75-2-8"/><path fill="#6b84b5" d="M1520 1368h3l2 8h-3c-1.765-3.088-2-4.233-2-8"/><path fill="#798db7" d="M444 1377v3c-2.639 1.414-5.071 2.372-8 3l1-4z"/><path fill="#6782b4" d="M522 1306h3l.875 1.938c.953 2.214.953 2.214 3.125 3.062l-1 3c-4.875-4.625-4.875-4.625-6-8"/><path fill="#627fb3" d="m1305 1302 6 2-5 5z"/><path fill="#6782b4" d="m828 1293 2 1c.625 2.063.625 2.063 1 4l2-1 1 3c-1.875.625-1.875.625-4 1-2-2-2-2-2.125-5.125z"/><path fill="#5d7bb2" d="m977 1267 5 1c-.812 1.938-.812 1.938-2 4l-3 1c-1.125-3.75-1.125-3.75 0-6"/><path fill="#6983b4" d="M1518 1308c2.094 3.402 2.18 6.053 2 10l-3-2c-.25-3.562-.25-3.562 0-7z"/><path fill="#7b8fb8" d="M1590 1276c2.125.938 2.125.938 4 2l-1 2h-7c2-3 2-3 4-4"/><path fill="#6580b3" d="M1147 1372h2l1 3-6 5 1-6h2z"/><path fill="#6d86b5" d="M749 1279c2.169.506 4 1 6 2l-1 3-6-2z"/><path fill="#7e91b9" d="m1613 1272 1.188 1.938c2.197 2.5 3.57 2.712 6.812 3.062v2q-3.5.061-7 0c-1-1-1-1-1.062-4.062z"/><path fill="#7088b6" d="m1848 1274 2 3 1-2-1 5h-4c.875-4.875.875-4.875 2-6"/><path fill="#758bb7" d="M406 1270c2 4 2 4 1.125 6.75L406 1279h-3z"/><path fill="#5476b0" d="M195 1266c2.438.375 2.438.375 5 1l1 2-2 2c-2.125-.375-2.125-.375-4-1z"/><path fill="#7e91b9" d="m755 1387 2 3c-3.823 1.423-6.913 2.24-11 2 2.465-2.465 4.715-2.952 8-4z"/><path fill="#5b7ab1" d="m231 1382 3 3-1 3-4-2c1-3 1-3 2-4"/><path fill="#4f72af" d="m824 1374 1 4-2-1zm-1 4 2 3-2 1-3-2h3zm-3 4 3 1h-3z"/><path fill="#6681b4" d="m1151 1374 2 3-5 4-2-2 1.938-.812c2.393-1.075 2.393-1.075 3.062-4.188"/><path fill="#4f72af" d="M1631 1294h3l-1 6h-3z"/><title>Title</title></svg>
