<?xml version="1.0" encoding="UTF-8"?>
<svg version="1.1" xmlns="http://www.w3.org/2000/svg" width="225" height="225">
<path d="M0 0 C74.25 0 148.5 0 225 0 C225 74.25 225 148.5 225 225 C150.75 225 76.5 225 0 225 C0 150.75 0 76.5 0 0 Z " fill="#FEFEFE" transform="translate(0,0)"/>
<path d="M0 0 C2.49077507 1.17066428 3.17587879 2.34722384 4.515625 4.73046875 C5.15564453 5.80748047 5.15564453 5.80748047 5.80859375 6.90625 C6.66038328 8.40342271 7.49801082 9.90867024 8.328125 11.41796875 C10.02392051 13.29003619 10.02392051 13.29003619 13.515625 13.23046875 C16.80972711 13.14150076 16.80972711 13.14150076 18.953125 11.91796875 C23.00454619 11.6593674 24.49650169 11.61355321 27.953125 13.91796875 C28.29539481 17.50513416 28.26508193 21.03051777 28.25390625 24.6328125 C28.60255605 28.14365668 28.60255605 28.14365668 31.69140625 29.75390625 C33.30595703 30.33011719 33.30595703 30.33011719 34.953125 30.91796875 C35.79617187 31.23121094 36.63921875 31.54445313 37.5078125 31.8671875 C38.27351563 32.11082031 39.03921875 32.35445312 39.828125 32.60546875 C40.99988281 32.98251953 40.99988281 32.98251953 42.1953125 33.3671875 C42.77539062 33.54894531 43.35546875 33.73070312 43.953125 33.91796875 C43.203125 41.54296875 43.203125 41.54296875 40.953125 44.91796875 C40.71205174 47.20445723 40.71205174 47.20445723 40.828125 49.60546875 C40.84617187 50.41371094 40.86421875 51.22195312 40.8828125 52.0546875 C40.90601563 52.66957031 40.92921875 53.28445312 40.953125 53.91796875 C41.85611328 54.34142578 41.85611328 54.34142578 42.77734375 54.7734375 C45.83417164 56.38142776 47.77726352 58.2447675 49.953125 60.91796875 C49.84926531 64.30707437 49.30855155 65.57509444 46.8515625 67.9453125 C46.01882812 68.57566406 45.18609375 69.20601563 44.328125 69.85546875 C41.8887991 71.84367911 41.8887991 71.84367911 39.953125 73.91796875 C39.65392012 77.73283091 40.51787167 79.22156343 42.515625 82.41796875 C44.25766182 85.447598 44.19301401 87.47955964 43.953125 90.91796875 C43.37304688 91.09972656 42.79296875 91.28148437 42.1953125 91.46875 C41.41414063 91.72011719 40.63296875 91.97148437 39.828125 92.23046875 C39.06242187 92.47410156 38.29671875 92.71773438 37.5078125 92.96875 C36.66476563 93.28199219 35.82171875 93.59523438 34.953125 93.91796875 C33.87804687 94.30210937 32.80296875 94.68625 31.6953125 95.08203125 C28.60691456 96.69333782 28.60691456 96.69333782 28.21875 100.203125 C28.21359375 101.44964844 28.2084375 102.69617188 28.203125 103.98046875 C28.1192692 110.75182455 28.1192692 110.75182455 25.953125 112.91796875 C20.56493082 113.24785819 15.29040381 112.59571844 9.953125 111.91796875 C7.24708384 116.22838214 4.5516607 120.54148756 1.953125 124.91796875 C-2.00305287 124.67070763 -3.98697112 123.25965839 -6.921875 120.79296875 C-9.87470147 118.49940373 -10.74303584 117.9392908 -14.609375 117.66796875 C-18.45391124 119.06598193 -20.49926865 120.80172203 -23.2734375 123.73828125 C-25.046875 124.91796875 -25.046875 124.91796875 -27.5546875 124.94140625 C-31.00897938 123.52287259 -31.67561467 121.72875299 -33.296875 118.41796875 C-33.79703125 117.41765625 -34.2971875 116.41734375 -34.8125 115.38671875 C-35.21984375 114.57203125 -35.6271875 113.75734375 -36.046875 112.91796875 C-37.16523724 111.573921 -37.16523724 111.573921 -40.046875 111.79296875 C-43.79277226 111.82399067 -47.43104066 112.32171214 -51.12890625 112.89453125 C-51.76183594 112.90226562 -52.39476563 112.91 -53.046875 112.91796875 C-56.41181244 109.55303131 -55.29356256 104.7812514 -55.3125 100.203125 C-55.7033402 96.68674541 -55.7033402 96.68674541 -58.82421875 95.046875 C-61.34399815 94.16418864 -63.75312737 93.349643 -66.359375 92.79296875 C-70.046875 91.91796875 -70.046875 91.91796875 -71.046875 90.91796875 C-70.74369967 87.05248335 -70.21978745 84.25049269 -68.421875 80.79296875 C-66.8002225 77.40224079 -66.8604668 76.41867097 -68.046875 72.91796875 C-70.26122584 70.70780383 -72.64069129 68.89373649 -75.11328125 66.98046875 C-77.046875 64.91796875 -77.046875 64.91796875 -77.640625 62.4453125 C-76.5855327 57.95422882 -72.65462902 55.9944221 -69.13671875 53.296875 C-66.69042743 51.05791993 -66.69042743 51.05791993 -67.140625 47.82421875 C-67.98686662 44.82288955 -67.98686662 44.82288955 -69.609375 41.85546875 C-71.08529516 38.839458 -71.59621212 37.21399147 -71.046875 33.91796875 C-67.45499378 31.52338127 -64.51955129 31.17045002 -60.32421875 30.48046875 C-57.86567729 30.081383 -57.86567729 30.081383 -56.046875 27.91796875 C-55.79605423 25.59217616 -55.64266664 23.25528477 -55.546875 20.91796875 C-55.26909722 14.14019097 -55.26909722 14.14019097 -53.046875 11.91796875 C-46.72429435 11.57925907 -46.72429435 11.57925907 -44.046875 12.91796875 C-40.67503958 13.6689941 -40.67503958 13.6689941 -37.046875 12.91796875 C-34.9000584 10.50780931 -33.51071645 7.78010651 -32.046875 4.91796875 C-30.546875 2.41796875 -30.546875 2.41796875 -29.046875 0.91796875 C-26.07048019 0.5570438 -24.56764425 0.56568367 -22.0546875 2.265625 C-21.43335938 2.83152344 -20.81203125 3.39742187 -20.171875 3.98046875 C-17.21720417 6.31427066 -16.37844252 6.89470085 -12.484375 7.16796875 C-8.63226139 5.76720016 -6.53520852 4.01089654 -3.72265625 1.09765625 C-2.046875 -0.08203125 -2.046875 -0.08203125 0 0 Z " fill="#15BBFE" transform="translate(126.046875,50.08203125)"/>
<path d="M0 0 C3.77519562 1.76229689 6.30729323 3.76875188 9 7 C8.70633898 10.45029304 7.20473807 12.18126438 4.82885742 14.59106445 C3.82727852 15.61651115 3.82727852 15.61651115 2.8054657 16.66267395 C2.07946671 17.38887436 1.35346771 18.11507477 0.60546875 18.86328125 C-0.51017708 19.99034737 -0.51017708 19.99034737 -1.64836121 21.1401825 C-3.22238384 22.72500721 -4.80039956 24.30587455 -6.38208008 25.88305664 C-8.80677657 28.30677887 -11.20936599 30.75103675 -13.61132812 33.19726562 C-15.14192699 34.73306969 -16.67378621 36.26761893 -18.20703125 37.80078125 C-18.92695755 38.53710281 -19.64688385 39.27342438 -20.3886261 40.03205872 C-21.06580185 40.69992905 -21.7429776 41.36779938 -22.44067383 42.0559082 C-23.03278152 42.65007034 -23.62488922 43.24423248 -24.23493958 43.85639954 C-26 45 -26 45 -28.08981323 44.79040527 C-32.60620676 42.92159259 -35.9178782 38.59267229 -39.3125 35.1875 C-40.16134766 34.36701172 -41.01019531 33.54652344 -41.88476562 32.70117188 C-42.68205078 31.90646484 -43.47933594 31.11175781 -44.30078125 30.29296875 C-45.03466064 29.5661792 -45.76854004 28.83938965 -46.5246582 28.09057617 C-48 26 -48 26 -47.81933594 23.83813477 C-46.84312846 21.64806738 -45.68410312 20.38511781 -43.9375 18.75 C-43.38964844 18.22921875 -42.84179688 17.7084375 -42.27734375 17.171875 C-41.64505859 16.59179688 -41.64505859 16.59179688 -41 16 C-36.62170683 17.84709243 -34.12120954 20.93708858 -31 24.41796875 C-29.19480949 26.19479416 -29.19480949 26.19479416 -27.24121094 25.94677734 C-23.87494238 24.52473056 -21.64587364 22.01256143 -19.140625 19.43359375 C-18.59138367 18.88010757 -18.04214233 18.3266214 -17.47625732 17.75636292 C-15.72699536 15.99033441 -13.98846356 14.21415308 -12.25 12.4375 C-11.064495 11.23694559 -9.87830476 10.0370674 -8.69140625 8.83789062 C-5.78626707 5.89970905 -2.89070663 2.95237926 0 0 Z " fill="#FAFDFD" transform="translate(132,89)"/>
</svg>
